# Created by Kenney (www.kenney.nl)

mtllib corridor-intersection.mtl

g corridor-intersection

v 2 0 -2 1 1 1
v 2 0 2 1 1 1
v -2 0 -2 1 1 1
v -2 0 2 1 1 1
v 2 0.9 1.399002 1 1 1
v 2 0.9 2 1 1 1
v 1.699501 0.9 1.479521 1 1 1
v 1.399002 0.9 2 1 1 1
v 1.479521 0.9 1.699501 1 1 1
v 2 0.2 1.399002 1 1 1
v 2 0.2 2 1 1 1
v 1.399002 0.2 2 1 1 1
v 1.479521 0.2 1.699501 1 1 1
v 1.699501 0.2 1.479521 1 1 1
v -1.399002 0.9 2 1 1 1
v -2 0.9 2 1 1 1
v -1.479521 0.9 1.699501 1 1 1
v -2 0.9 1.399002 1 1 1
v -1.699501 0.9 1.479521 1 1 1
v -1.399002 0.2 2 1 1 1
v -2 0.2 2 1 1 1
v -2 0.2 1.399002 1 1 1
v -1.699501 0.2 1.479521 1 1 1
v -1.479521 0.2 1.699501 1 1 1
v -2 0.9 -1.399002 1 1 1
v -2 0.9 -2 1 1 1
v -1.699501 0.9 -1.479521 1 1 1
v -1.399002 0.9 -2 1 1 1
v -1.479521 0.9 -1.699501 1 1 1
v -2 0.2 -1.399002 1 1 1
v -2 0.2 -2 1 1 1
v -1.399002 0.2 -2 1 1 1
v -1.479521 0.2 -1.699501 1 1 1
v -1.699501 0.2 -1.479521 1 1 1
v 1.399002 0.9 -2 1 1 1
v 2 0.9 -2 1 1 1
v 1.479521 0.9 -1.699501 1 1 1
v 2 0.9 -1.399002 1 1 1
v 1.699501 0.9 -1.479521 1 1 1
v 1.399002 0.2 -2 1 1 1
v 2 0.2 -2 1 1 1
v 2 0.2 -1.399002 1 1 1
v 1.699501 0.2 -1.479521 1 1 1
v 1.479521 0.2 -1.699501 1 1 1
v 1.999999 3 1.6 1 1 1
v 1.999999 0.9 1.6 1 1 1
v 1.999999 3 2 1 1 1
v 1.999999 0.9 2 1 1 1
v 1.599999 0.9 2 1 1 1
v 1.599999 3 2 1 1 1
v 1.799999 0.9 1.65359 1 1 1
v 1.799999 3 1.65359 1 1 1
v 1.653589 0.9 1.8 1 1 1
v 1.653589 3 1.8 1 1 1
v 1.999998 -1.707772E-14 2 1 1 1
v 0.998003 -1.707772E-14 2 1 1 1
v 1.999998 0.2 2 1 1 1
v 0.998003 0.2 2 1 1 1
v 1.999998 0.2 0.9980049 1 1 1
v 1.999998 -1.707772E-14 0.9980049 1 1 1
v 1.499001 0.2 1.132247 1 1 1
v 1.132245 0.2 1.499002 1 1 1
v 1.499001 -1.635581E-14 1.132247 1 1 1
v 1.132245 -1.635581E-14 1.499002 1 1 1
v -1.599999 3 2 1 1 1
v -1.599999 0.9 2 1 1 1
v -1.999999 3 2 1 1 1
v -1.999999 0.9 2 1 1 1
v -1.999999 0.9 1.6 1 1 1
v -1.999999 3 1.6 1 1 1
v -1.653589 0.9 1.8 1 1 1
v -1.653589 3 1.8 1 1 1
v -1.799999 0.9 1.65359 1 1 1
v -1.799999 3 1.65359 1 1 1
v -1.999998 -1.707772E-14 2 1 1 1
v -1.999998 -1.707772E-14 0.9980048 1 1 1
v -1.999998 0.2 2 1 1 1
v -1.999998 0.2 0.9980048 1 1 1
v -0.998003 0.2 2 1 1 1
v -0.998003 -1.707772E-14 2 1 1 1
v -1.132245 0.2 1.499002 1 1 1
v -1.499001 0.2 1.132247 1 1 1
v -1.132245 -1.635581E-14 1.499002 1 1 1
v -1.499001 -1.635581E-14 1.132247 1 1 1
v -1.999999 3 -1.6 1 1 1
v -1.999999 0.9 -1.6 1 1 1
v -1.999999 3 -2 1 1 1
v -1.999999 0.9 -2 1 1 1
v -1.599999 0.9 -2 1 1 1
v -1.599999 3 -2 1 1 1
v -1.799999 0.9 -1.65359 1 1 1
v -1.799999 3 -1.65359 1 1 1
v -1.653589 0.9 -1.8 1 1 1
v -1.653589 3 -1.8 1 1 1
v -1.999998 -1.707772E-14 -2 1 1 1
v -0.998003 -1.707772E-14 -2 1 1 1
v -1.999998 0.2 -2 1 1 1
v -0.998003 0.2 -2 1 1 1
v -1.999998 0.2 -0.9980049 1 1 1
v -1.999998 -1.707772E-14 -0.9980049 1 1 1
v -1.499001 0.2 -1.132247 1 1 1
v -1.132245 0.2 -1.499002 1 1 1
v -1.499001 -1.635581E-14 -1.132247 1 1 1
v -1.132245 -1.635581E-14 -1.499002 1 1 1
v 1.599999 3 -2 1 1 1
v 1.599999 0.9 -2 1 1 1
v 1.999999 3 -2 1 1 1
v 1.999999 0.9 -2 1 1 1
v 1.999999 0.9 -1.6 1 1 1
v 1.999999 3 -1.6 1 1 1
v 1.653589 0.9 -1.8 1 1 1
v 1.653589 3 -1.8 1 1 1
v 1.799999 0.9 -1.65359 1 1 1
v 1.799999 3 -1.65359 1 1 1
v 1.999998 -1.707772E-14 -2 1 1 1
v 1.999998 -1.707772E-14 -0.9980049 1 1 1
v 1.999998 0.2 -2 1 1 1
v 1.999998 0.2 -0.9980049 1 1 1
v 0.9980029 0.2 -2 1 1 1
v 0.9980029 -1.707772E-14 -2 1 1 1
v 1.132245 0.2 -1.499002 1 1 1
v 1.499001 0.2 -1.132247 1 1 1
v 1.132245 -1.635581E-14 -1.499002 1 1 1
v 1.499001 -1.635581E-14 -1.132247 1 1 1

vn 0 1 0
vn 0 -1 0
vn 1 0 0
vn -1 0 0
vn 0 0 1
vn 0 0 -1
vn -0.8660254 0 -0.5
vn -0.9659258 0 -0.258819
vn 0.9659258 0 0.258819
vn 0.8660254 0 0.5
vn -0.5 0 -0.8660254
vn 0.5 0 0.8660254
vn -0.258819 0 -0.9659258
vn 0.258819 0 0.9659258
vn -1.192093E-07 0 1
vn 1.192093E-07 0 -1
vn -1 0 -1.192093E-07
vn 1 0 1.192093E-07
vn 0.5000002 0 -0.8660255
vn 0.2588192 0 -0.9659259
vn -0.2588192 0 0.9659259
vn -0.5000002 0 0.8660255
vn 0.8660256 0 -0.5
vn -0.8660256 0 0.5
vn 0.965926 0 -0.2588189
vn -0.965926 0 0.2588189
vn -1 0 3.314016E-14
vn 1 0 -3.314016E-14
vn -3.314016E-14 0 -1
vn 3.314016E-14 0 1
vn -1.192093E-07 0 -1
vn 1.192093E-07 0 1
vn 1 0 -1.192093E-07
vn -1 0 1.192093E-07
vn -0.5 0 0.8660256
vn -0.258819 0 0.965926
vn 0.258819 0 -0.965926
vn 0.5 0 -0.8660256
vn -0.8660255 0 0.5000002
vn 0.8660255 0 -0.5000002
vn -0.9659259 0 0.2588192
vn 0.9659259 0 -0.2588192
vn -0.5 0 -0.8660254
vn 0.5 0 0.8660254
vn 0.8660256 0 -0.4999999
vn -0.8660256 0 0.4999999
vn -0.8660255 0 0.5000001
vn 0.8660255 0 -0.5000001

vt 0.09375 0.025
vt 0.09375 0.225
vt 0.34375 0.225
vt 0.34375 0.025
vt 0.34375 0.105

usemtl colormap

f 3/1/1 2/1/1 1/1/1
f 2/1/1 3/1/1 4/1/1
f 1/1/2 2/1/2 3/1/2
f 4/1/2 3/1/2 2/1/2
f 7/2/1 6/2/1 5/2/1
f 6/2/1 7/2/1 8/2/1
f 8/2/1 7/2/1 9/2/1
f 5/2/2 6/2/2 7/2/2
f 8/2/2 7/2/2 6/2/2
f 9/2/2 7/2/2 8/2/2
f 6/2/3 10/1/3 5/2/3
f 10/1/3 6/2/3 11/1/3
f 5/2/4 10/1/4 6/2/4
f 11/1/4 6/2/4 10/1/4
f 6/2/5 12/1/5 11/1/5
f 12/1/5 6/2/5 8/2/5
f 11/1/6 12/1/6 6/2/6
f 8/2/6 6/2/6 12/1/6
f 12/1/8 9/2/7 13/1/7
f 9/2/7 12/1/8 8/2/8
f 13/1/10 9/2/10 12/1/9
f 8/2/9 12/1/9 9/2/10
f 13/1/7 7/2/11 14/1/11
f 7/2/11 13/1/7 9/2/7
f 14/1/12 7/2/12 13/1/10
f 9/2/10 13/1/10 7/2/12
f 14/1/11 5/2/13 10/1/13
f 5/2/13 14/1/11 7/2/11
f 10/1/14 5/2/14 14/1/12
f 7/2/12 14/1/12 5/2/14
f 17/2/1 16/2/1 15/2/1
f 16/2/1 17/2/1 18/2/1
f 18/2/1 17/2/1 19/2/1
f 15/2/2 16/2/2 17/2/2
f 18/2/2 17/2/2 16/2/2
f 19/2/2 17/2/2 18/2/2
f 16/2/15 20/1/15 15/2/15
f 20/1/15 16/2/15 21/1/15
f 15/2/16 20/1/16 16/2/16
f 21/1/16 16/2/16 20/1/16
f 16/2/17 22/1/17 21/1/17
f 22/1/17 16/2/17 18/2/17
f 21/1/18 22/1/18 16/2/18
f 18/2/18 16/2/18 22/1/18
f 22/1/20 19/2/19 23/1/19
f 19/2/19 22/1/20 18/2/20
f 23/1/22 19/2/22 22/1/21
f 18/2/21 22/1/21 19/2/22
f 23/1/19 17/2/23 24/1/23
f 17/2/23 23/1/19 19/2/19
f 24/1/24 17/2/24 23/1/22
f 19/2/22 23/1/22 17/2/24
f 24/1/23 15/2/25 20/1/25
f 15/2/25 24/1/23 17/2/23
f 20/1/26 15/2/26 24/1/24
f 17/2/24 24/1/24 15/2/26
f 27/2/1 26/2/1 25/2/1
f 26/2/1 27/2/1 28/2/1
f 28/2/1 27/2/1 29/2/1
f 25/2/2 26/2/2 27/2/2
f 28/2/2 27/2/2 26/2/2
f 29/2/2 27/2/2 28/2/2
f 26/2/27 30/1/27 25/2/27
f 30/1/27 26/2/27 31/1/27
f 25/2/28 30/1/28 26/2/28
f 31/1/28 26/2/28 30/1/28
f 26/2/29 32/1/29 31/1/29
f 32/1/29 26/2/29 28/2/29
f 31/1/30 32/1/30 26/2/30
f 28/2/30 26/2/30 32/1/30
f 32/1/9 29/2/10 33/1/10
f 29/2/10 32/1/9 28/2/9
f 33/1/7 29/2/7 32/1/8
f 28/2/8 32/1/8 29/2/7
f 33/1/10 27/2/12 34/1/12
f 27/2/12 33/1/10 29/2/10
f 34/1/11 27/2/11 33/1/7
f 29/2/7 33/1/7 27/2/11
f 34/1/12 25/2/14 30/1/14
f 25/2/14 34/1/12 27/2/12
f 30/1/13 25/2/13 34/1/11
f 27/2/11 34/1/11 25/2/13
f 37/2/1 36/2/1 35/2/1
f 36/2/1 37/2/1 38/2/1
f 38/2/1 37/2/1 39/2/1
f 35/2/2 36/2/2 37/2/2
f 38/2/2 37/2/2 36/2/2
f 39/2/2 37/2/2 38/2/2
f 36/2/31 40/1/31 35/2/31
f 40/1/31 36/2/31 41/1/31
f 35/2/32 40/1/32 36/2/32
f 41/1/32 36/2/32 40/1/32
f 36/2/33 42/1/33 41/1/33
f 42/1/33 36/2/33 38/2/33
f 41/1/34 42/1/34 36/2/34
f 38/2/34 36/2/34 42/1/34
f 42/1/36 39/2/35 43/1/35
f 39/2/35 42/1/36 38/2/36
f 43/1/38 39/2/38 42/1/37
f 38/2/37 42/1/37 39/2/38
f 43/1/35 37/2/39 44/1/39
f 37/2/39 43/1/35 39/2/35
f 44/1/40 37/2/40 43/1/38
f 39/2/38 43/1/38 37/2/40
f 44/1/39 35/2/41 40/1/41
f 35/2/41 44/1/39 37/2/39
f 40/1/42 35/2/42 44/1/40
f 37/2/40 44/1/40 35/2/42
f 47/3/3 46/4/3 45/3/3
f 46/4/3 47/3/3 48/4/3
f 45/3/4 46/4/4 47/3/4
f 48/4/4 47/3/4 46/4/4
f 47/3/5 49/4/5 48/4/5
f 49/4/5 47/3/5 50/3/5
f 48/4/6 49/4/6 47/3/6
f 50/3/6 47/3/6 49/4/6
f 51/4/11 45/3/13 46/4/13
f 45/3/13 51/4/11 52/3/11
f 46/4/14 45/3/14 51/4/12
f 52/3/12 51/4/12 45/3/14
f 49/4/8 54/3/7 53/4/7
f 54/3/7 49/4/8 50/3/8
f 53/4/10 54/3/10 49/4/9
f 50/3/9 49/4/9 54/3/10
f 52/3/1 47/3/1 45/3/1
f 47/3/1 52/3/1 50/3/1
f 50/3/1 52/3/1 54/3/1
f 45/3/2 47/3/2 52/3/2
f 50/3/2 52/3/2 47/3/2
f 54/3/2 52/3/2 50/3/2
f 54/3/7 51/4/11 53/4/7
f 51/4/11 54/3/7 52/3/11
f 53/4/10 51/4/12 54/3/10
f 52/3/12 54/3/10 51/4/12
f 57/5/5 56/4/5 55/4/5
f 56/4/5 57/5/5 58/5/5
f 55/4/6 56/4/6 57/5/6
f 58/5/6 57/5/6 56/4/6
f 57/5/3 60/4/3 59/5/3
f 60/4/3 57/5/3 55/4/3
f 59/5/4 60/4/4 57/5/4
f 55/4/4 57/5/4 60/4/4
f 61/5/1 57/5/1 59/5/1
f 57/5/1 61/5/1 58/5/1
f 58/5/1 61/5/1 62/5/1
f 59/5/2 57/5/2 61/5/2
f 58/5/2 61/5/2 57/5/2
f 62/5/2 61/5/2 58/5/2
f 56/4/2 60/4/2 55/4/2
f 60/4/2 56/4/2 63/4/2
f 63/4/2 56/4/2 64/4/2
f 55/4/1 60/4/1 56/4/1
f 63/4/1 56/4/1 60/4/1
f 64/4/1 56/4/1 63/4/1
f 56/4/8 62/5/7 64/4/7
f 62/5/7 56/4/8 58/5/8
f 64/4/10 62/5/10 56/4/9
f 58/5/9 56/4/9 62/5/10
f 62/5/7 63/4/43 64/4/7
f 63/4/43 62/5/7 61/5/43
f 64/4/10 63/4/44 62/5/10
f 61/5/44 62/5/10 63/4/44
f 63/4/43 59/5/13 60/4/13
f 59/5/13 63/4/43 61/5/43
f 60/4/14 59/5/14 63/4/44
f 61/5/44 63/4/44 59/5/14
f 67/3/15 66/4/15 65/3/15
f 66/4/15 67/3/15 68/4/15
f 65/3/16 66/4/16 67/3/16
f 68/4/16 67/3/16 66/4/16
f 67/3/17 69/4/17 68/4/17
f 69/4/17 67/3/17 70/3/17
f 68/4/18 69/4/18 67/3/18
f 70/3/18 67/3/18 69/4/18
f 71/4/23 65/3/25 66/4/25
f 65/3/25 71/4/23 72/3/23
f 66/4/26 65/3/26 71/4/24
f 72/3/24 71/4/24 65/3/26
f 69/4/20 74/3/19 73/4/19
f 74/3/19 69/4/20 70/3/20
f 73/4/22 74/3/22 69/4/21
f 70/3/21 69/4/21 74/3/22
f 72/3/1 67/3/1 65/3/1
f 67/3/1 72/3/1 70/3/1
f 70/3/1 72/3/1 74/3/1
f 65/3/2 67/3/2 72/3/2
f 70/3/2 72/3/2 67/3/2
f 74/3/2 72/3/2 70/3/2
f 74/3/19 71/4/23 73/4/19
f 71/4/23 74/3/19 72/3/23
f 73/4/22 71/4/24 74/3/22
f 72/3/24 74/3/22 71/4/24
f 77/5/17 76/4/17 75/4/17
f 76/4/17 77/5/17 78/5/17
f 75/4/18 76/4/18 77/5/18
f 78/5/18 77/5/18 76/4/18
f 77/5/15 80/4/15 79/5/15
f 80/4/15 77/5/15 75/4/15
f 79/5/16 80/4/16 77/5/16
f 75/4/16 77/5/16 80/4/16
f 81/5/1 77/5/1 79/5/1
f 77/5/1 81/5/1 78/5/1
f 78/5/1 81/5/1 82/5/1
f 79/5/2 77/5/2 81/5/2
f 78/5/2 81/5/2 77/5/2
f 82/5/2 81/5/2 78/5/2
f 76/4/2 80/4/2 75/4/2
f 80/4/2 76/4/2 83/4/2
f 83/4/2 76/4/2 84/4/2
f 75/4/1 80/4/1 76/4/1
f 83/4/1 76/4/1 80/4/1
f 84/4/1 76/4/1 83/4/1
f 76/4/20 82/5/19 84/4/19
f 82/5/19 76/4/20 78/5/20
f 84/4/22 82/5/22 76/4/21
f 78/5/21 76/4/21 82/5/22
f 82/5/19 83/4/45 84/4/19
f 83/4/45 82/5/19 81/5/45
f 84/4/22 83/4/46 82/5/22
f 81/5/46 82/5/22 83/4/46
f 83/4/45 79/5/25 80/4/25
f 79/5/25 83/4/45 81/5/45
f 80/4/26 79/5/26 83/4/46
f 81/5/46 83/4/46 79/5/26
f 87/3/27 86/4/27 85/3/27
f 86/4/27 87/3/27 88/4/27
f 85/3/28 86/4/28 87/3/28
f 88/4/28 87/3/28 86/4/28
f 87/3/29 89/4/29 88/4/29
f 89/4/29 87/3/29 90/3/29
f 88/4/30 89/4/30 87/3/30
f 90/3/30 87/3/30 89/4/30
f 91/4/12 85/3/14 86/4/14
f 85/3/14 91/4/12 92/3/12
f 86/4/13 85/3/13 91/4/11
f 92/3/11 91/4/11 85/3/13
f 89/4/9 94/3/10 93/4/10
f 94/3/10 89/4/9 90/3/9
f 93/4/7 94/3/7 89/4/8
f 90/3/8 89/4/8 94/3/7
f 92/3/1 87/3/1 85/3/1
f 87/3/1 92/3/1 90/3/1
f 90/3/1 92/3/1 94/3/1
f 85/3/2 87/3/2 92/3/2
f 90/3/2 92/3/2 87/3/2
f 94/3/2 92/3/2 90/3/2
f 94/3/10 91/4/12 93/4/10
f 91/4/12 94/3/10 92/3/12
f 93/4/7 91/4/11 94/3/7
f 92/3/11 94/3/7 91/4/11
f 97/5/29 96/4/29 95/4/29
f 96/4/29 97/5/29 98/5/29
f 95/4/30 96/4/30 97/5/30
f 98/5/30 97/5/30 96/4/30
f 97/5/27 100/4/27 99/5/27
f 100/4/27 97/5/27 95/4/27
f 99/5/28 100/4/28 97/5/28
f 95/4/28 97/5/28 100/4/28
f 101/5/1 97/5/1 99/5/1
f 97/5/1 101/5/1 98/5/1
f 98/5/1 101/5/1 102/5/1
f 99/5/2 97/5/2 101/5/2
f 98/5/2 101/5/2 97/5/2
f 102/5/2 101/5/2 98/5/2
f 96/4/2 100/4/2 95/4/2
f 100/4/2 96/4/2 103/4/2
f 103/4/2 96/4/2 104/4/2
f 95/4/1 100/4/1 96/4/1
f 103/4/1 96/4/1 100/4/1
f 104/4/1 96/4/1 103/4/1
f 96/4/9 102/5/10 104/4/10
f 102/5/10 96/4/9 98/5/9
f 104/4/7 102/5/7 96/4/8
f 98/5/8 96/4/8 102/5/7
f 102/5/10 103/4/44 104/4/10
f 103/4/44 102/5/10 101/5/44
f 104/4/7 103/4/43 102/5/7
f 101/5/43 102/5/7 103/4/43
f 103/4/44 99/5/14 100/4/14
f 99/5/14 103/4/44 101/5/44
f 100/4/13 99/5/13 103/4/43
f 101/5/43 103/4/43 99/5/13
f 107/3/31 106/4/31 105/3/31
f 106/4/31 107/3/31 108/4/31
f 105/3/32 106/4/32 107/3/32
f 108/4/32 107/3/32 106/4/32
f 107/3/33 109/4/33 108/4/33
f 109/4/33 107/3/33 110/3/33
f 108/4/34 109/4/34 107/3/34
f 110/3/34 107/3/34 109/4/34
f 111/4/39 105/3/41 106/4/41
f 105/3/41 111/4/39 112/3/39
f 106/4/42 105/3/42 111/4/40
f 112/3/40 111/4/40 105/3/42
f 109/4/36 114/3/35 113/4/35
f 114/3/35 109/4/36 110/3/36
f 113/4/38 114/3/38 109/4/37
f 110/3/37 109/4/37 114/3/38
f 112/3/1 107/3/1 105/3/1
f 107/3/1 112/3/1 110/3/1
f 110/3/1 112/3/1 114/3/1
f 105/3/2 107/3/2 112/3/2
f 110/3/2 112/3/2 107/3/2
f 114/3/2 112/3/2 110/3/2
f 114/3/35 111/4/39 113/4/35
f 111/4/39 114/3/35 112/3/39
f 113/4/38 111/4/40 114/3/38
f 112/3/40 114/3/38 111/4/40
f 117/5/33 116/4/33 115/4/33
f 116/4/33 117/5/33 118/5/33
f 115/4/34 116/4/34 117/5/34
f 118/5/34 117/5/34 116/4/34
f 117/5/31 120/4/31 119/5/31
f 120/4/31 117/5/31 115/4/31
f 119/5/32 120/4/32 117/5/32
f 115/4/32 117/5/32 120/4/32
f 121/5/1 117/5/1 119/5/1
f 117/5/1 121/5/1 118/5/1
f 118/5/1 121/5/1 122/5/1
f 119/5/2 117/5/2 121/5/2
f 118/5/2 121/5/2 117/5/2
f 122/5/2 121/5/2 118/5/2
f 116/4/2 120/4/2 115/4/2
f 120/4/2 116/4/2 123/4/2
f 123/4/2 116/4/2 124/4/2
f 115/4/1 120/4/1 116/4/1
f 123/4/1 116/4/1 120/4/1
f 124/4/1 116/4/1 123/4/1
f 116/4/36 122/5/35 124/4/35
f 122/5/35 116/4/36 118/5/36
f 124/4/38 122/5/38 116/4/37
f 118/5/37 116/4/37 122/5/38
f 122/5/35 123/4/47 124/4/35
f 123/4/47 122/5/35 121/5/47
f 124/4/38 123/4/48 122/5/38
f 121/5/48 122/5/38 123/4/48
f 123/4/47 119/5/41 120/4/41
f 119/5/41 123/4/47 121/5/47
f 120/4/42 119/5/42 123/4/48
f 121/5/48 123/4/48 119/5/42

g corridor-intersection




usemtl colormap

f 3/1/1 2/1/1 1/1/1
f 2/1/1 3/1/1 4/1/1
f 1/1/2 2/1/2 3/1/2
f 4/1/2 3/1/2 2/1/2
f 7/2/1 6/2/1 5/2/1
f 6/2/1 7/2/1 8/2/1
f 8/2/1 7/2/1 9/2/1
f 5/2/2 6/2/2 7/2/2
f 8/2/2 7/2/2 6/2/2
f 9/2/2 7/2/2 8/2/2
f 6/2/3 10/1/3 5/2/3
f 10/1/3 6/2/3 11/1/3
f 5/2/4 10/1/4 6/2/4
f 11/1/4 6/2/4 10/1/4
f 6/2/5 12/1/5 11/1/5
f 12/1/5 6/2/5 8/2/5
f 11/1/6 12/1/6 6/2/6
f 8/2/6 6/2/6 12/1/6
f 12/1/8 9/2/7 13/1/7
f 9/2/7 12/1/8 8/2/8
f 13/1/10 9/2/10 12/1/9
f 8/2/9 12/1/9 9/2/10
f 13/1/7 7/2/11 14/1/11
f 7/2/11 13/1/7 9/2/7
f 14/1/12 7/2/12 13/1/10
f 9/2/10 13/1/10 7/2/12
f 14/1/11 5/2/13 10/1/13
f 5/2/13 14/1/11 7/2/11
f 10/1/14 5/2/14 14/1/12
f 7/2/12 14/1/12 5/2/14
f 17/2/1 16/2/1 15/2/1
f 16/2/1 17/2/1 18/2/1
f 18/2/1 17/2/1 19/2/1
f 15/2/2 16/2/2 17/2/2
f 18/2/2 17/2/2 16/2/2
f 19/2/2 17/2/2 18/2/2
f 16/2/15 20/1/15 15/2/15
f 20/1/15 16/2/15 21/1/15
f 15/2/16 20/1/16 16/2/16
f 21/1/16 16/2/16 20/1/16
f 16/2/17 22/1/17 21/1/17
f 22/1/17 16/2/17 18/2/17
f 21/1/18 22/1/18 16/2/18
f 18/2/18 16/2/18 22/1/18
f 22/1/20 19/2/19 23/1/19
f 19/2/19 22/1/20 18/2/20
f 23/1/22 19/2/22 22/1/21
f 18/2/21 22/1/21 19/2/22
f 23/1/19 17/2/23 24/1/23
f 17/2/23 23/1/19 19/2/19
f 24/1/24 17/2/24 23/1/22
f 19/2/22 23/1/22 17/2/24
f 24/1/23 15/2/25 20/1/25
f 15/2/25 24/1/23 17/2/23
f 20/1/26 15/2/26 24/1/24
f 17/2/24 24/1/24 15/2/26
f 27/2/1 26/2/1 25/2/1
f 26/2/1 27/2/1 28/2/1
f 28/2/1 27/2/1 29/2/1
f 25/2/2 26/2/2 27/2/2
f 28/2/2 27/2/2 26/2/2
f 29/2/2 27/2/2 28/2/2
f 26/2/27 30/1/27 25/2/27
f 30/1/27 26/2/27 31/1/27
f 25/2/28 30/1/28 26/2/28
f 31/1/28 26/2/28 30/1/28
f 26/2/29 32/1/29 31/1/29
f 32/1/29 26/2/29 28/2/29
f 31/1/30 32/1/30 26/2/30
f 28/2/30 26/2/30 32/1/30
f 32/1/9 29/2/10 33/1/10
f 29/2/10 32/1/9 28/2/9
f 33/1/7 29/2/7 32/1/8
f 28/2/8 32/1/8 29/2/7
f 33/1/10 27/2/12 34/1/12
f 27/2/12 33/1/10 29/2/10
f 34/1/11 27/2/11 33/1/7
f 29/2/7 33/1/7 27/2/11
f 34/1/12 25/2/14 30/1/14
f 25/2/14 34/1/12 27/2/12
f 30/1/13 25/2/13 34/1/11
f 27/2/11 34/1/11 25/2/13
f 37/2/1 36/2/1 35/2/1
f 36/2/1 37/2/1 38/2/1
f 38/2/1 37/2/1 39/2/1
f 35/2/2 36/2/2 37/2/2
f 38/2/2 37/2/2 36/2/2
f 39/2/2 37/2/2 38/2/2
f 36/2/31 40/1/31 35/2/31
f 40/1/31 36/2/31 41/1/31
f 35/2/32 40/1/32 36/2/32
f 41/1/32 36/2/32 40/1/32
f 36/2/33 42/1/33 41/1/33
f 42/1/33 36/2/33 38/2/33
f 41/1/34 42/1/34 36/2/34
f 38/2/34 36/2/34 42/1/34
f 42/1/36 39/2/35 43/1/35
f 39/2/35 42/1/36 38/2/36
f 43/1/38 39/2/38 42/1/37
f 38/2/37 42/1/37 39/2/38
f 43/1/35 37/2/39 44/1/39
f 37/2/39 43/1/35 39/2/35
f 44/1/40 37/2/40 43/1/38
f 39/2/38 43/1/38 37/2/40
f 44/1/39 35/2/41 40/1/41
f 35/2/41 44/1/39 37/2/39
f 40/1/42 35/2/42 44/1/40
f 37/2/40 44/1/40 35/2/42
f 47/3/3 46/4/3 45/3/3
f 46/4/3 47/3/3 48/4/3
f 45/3/4 46/4/4 47/3/4
f 48/4/4 47/3/4 46/4/4
f 47/3/5 49/4/5 48/4/5
f 49/4/5 47/3/5 50/3/5
f 48/4/6 49/4/6 47/3/6
f 50/3/6 47/3/6 49/4/6
f 51/4/11 45/3/13 46/4/13
f 45/3/13 51/4/11 52/3/11
f 46/4/14 45/3/14 51/4/12
f 52/3/12 51/4/12 45/3/14
f 49/4/8 54/3/7 53/4/7
f 54/3/7 49/4/8 50/3/8
f 53/4/10 54/3/10 49/4/9
f 50/3/9 49/4/9 54/3/10
f 52/3/1 47/3/1 45/3/1
f 47/3/1 52/3/1 50/3/1
f 50/3/1 52/3/1 54/3/1
f 45/3/2 47/3/2 52/3/2
f 50/3/2 52/3/2 47/3/2
f 54/3/2 52/3/2 50/3/2
f 54/3/7 51/4/11 53/4/7
f 51/4/11 54/3/7 52/3/11
f 53/4/10 51/4/12 54/3/10
f 52/3/12 54/3/10 51/4/12
f 57/5/5 56/4/5 55/4/5
f 56/4/5 57/5/5 58/5/5
f 55/4/6 56/4/6 57/5/6
f 58/5/6 57/5/6 56/4/6
f 57/5/3 60/4/3 59/5/3
f 60/4/3 57/5/3 55/4/3
f 59/5/4 60/4/4 57/5/4
f 55/4/4 57/5/4 60/4/4
f 61/5/1 57/5/1 59/5/1
f 57/5/1 61/5/1 58/5/1
f 58/5/1 61/5/1 62/5/1
f 59/5/2 57/5/2 61/5/2
f 58/5/2 61/5/2 57/5/2
f 62/5/2 61/5/2 58/5/2
f 56/4/2 60/4/2 55/4/2
f 60/4/2 56/4/2 63/4/2
f 63/4/2 56/4/2 64/4/2
f 55/4/1 60/4/1 56/4/1
f 63/4/1 56/4/1 60/4/1
f 64/4/1 56/4/1 63/4/1
f 56/4/8 62/5/7 64/4/7
f 62/5/7 56/4/8 58/5/8
f 64/4/10 62/5/10 56/4/9
f 58/5/9 56/4/9 62/5/10
f 62/5/7 63/4/43 64/4/7
f 63/4/43 62/5/7 61/5/43
f 64/4/10 63/4/44 62/5/10
f 61/5/44 62/5/10 63/4/44
f 63/4/43 59/5/13 60/4/13
f 59/5/13 63/4/43 61/5/43
f 60/4/14 59/5/14 63/4/44
f 61/5/44 63/4/44 59/5/14
f 67/3/15 66/4/15 65/3/15
f 66/4/15 67/3/15 68/4/15
f 65/3/16 66/4/16 67/3/16
f 68/4/16 67/3/16 66/4/16
f 67/3/17 69/4/17 68/4/17
f 69/4/17 67/3/17 70/3/17
f 68/4/18 69/4/18 67/3/18
f 70/3/18 67/3/18 69/4/18
f 71/4/23 65/3/25 66/4/25
f 65/3/25 71/4/23 72/3/23
f 66/4/26 65/3/26 71/4/24
f 72/3/24 71/4/24 65/3/26
f 69/4/20 74/3/19 73/4/19
f 74/3/19 69/4/20 70/3/20
f 73/4/22 74/3/22 69/4/21
f 70/3/21 69/4/21 74/3/22
f 72/3/1 67/3/1 65/3/1
f 67/3/1 72/3/1 70/3/1
f 70/3/1 72/3/1 74/3/1
f 65/3/2 67/3/2 72/3/2
f 70/3/2 72/3/2 67/3/2
f 74/3/2 72/3/2 70/3/2
f 74/3/19 71/4/23 73/4/19
f 71/4/23 74/3/19 72/3/23
f 73/4/22 71/4/24 74/3/22
f 72/3/24 74/3/22 71/4/24
f 77/5/17 76/4/17 75/4/17
f 76/4/17 77/5/17 78/5/17
f 75/4/18 76/4/18 77/5/18
f 78/5/18 77/5/18 76/4/18
f 77/5/15 80/4/15 79/5/15
f 80/4/15 77/5/15 75/4/15
f 79/5/16 80/4/16 77/5/16
f 75/4/16 77/5/16 80/4/16
f 81/5/1 77/5/1 79/5/1
f 77/5/1 81/5/1 78/5/1
f 78/5/1 81/5/1 82/5/1
f 79/5/2 77/5/2 81/5/2
f 78/5/2 81/5/2 77/5/2
f 82/5/2 81/5/2 78/5/2
f 76/4/2 80/4/2 75/4/2
f 80/4/2 76/4/2 83/4/2
f 83/4/2 76/4/2 84/4/2
f 75/4/1 80/4/1 76/4/1
f 83/4/1 76/4/1 80/4/1
f 84/4/1 76/4/1 83/4/1
f 76/4/20 82/5/19 84/4/19
f 82/5/19 76/4/20 78/5/20
f 84/4/22 82/5/22 76/4/21
f 78/5/21 76/4/21 82/5/22
f 82/5/19 83/4/45 84/4/19
f 83/4/45 82/5/19 81/5/45
f 84/4/22 83/4/46 82/5/22
f 81/5/46 82/5/22 83/4/46
f 83/4/45 79/5/25 80/4/25
f 79/5/25 83/4/45 81/5/45
f 80/4/26 79/5/26 83/4/46
f 81/5/46 83/4/46 79/5/26
f 87/3/27 86/4/27 85/3/27
f 86/4/27 87/3/27 88/4/27
f 85/3/28 86/4/28 87/3/28
f 88/4/28 87/3/28 86/4/28
f 87/3/29 89/4/29 88/4/29
f 89/4/29 87/3/29 90/3/29
f 88/4/30 89/4/30 87/3/30
f 90/3/30 87/3/30 89/4/30
f 91/4/12 85/3/14 86/4/14
f 85/3/14 91/4/12 92/3/12
f 86/4/13 85/3/13 91/4/11
f 92/3/11 91/4/11 85/3/13
f 89/4/9 94/3/10 93/4/10
f 94/3/10 89/4/9 90/3/9
f 93/4/7 94/3/7 89/4/8
f 90/3/8 89/4/8 94/3/7
f 92/3/1 87/3/1 85/3/1
f 87/3/1 92/3/1 90/3/1
f 90/3/1 92/3/1 94/3/1
f 85/3/2 87/3/2 92/3/2
f 90/3/2 92/3/2 87/3/2
f 94/3/2 92/3/2 90/3/2
f 94/3/10 91/4/12 93/4/10
f 91/4/12 94/3/10 92/3/12
f 93/4/7 91/4/11 94/3/7
f 92/3/11 94/3/7 91/4/11
f 97/5/29 96/4/29 95/4/29
f 96/4/29 97/5/29 98/5/29
f 95/4/30 96/4/30 97/5/30
f 98/5/30 97/5/30 96/4/30
f 97/5/27 100/4/27 99/5/27
f 100/4/27 97/5/27 95/4/27
f 99/5/28 100/4/28 97/5/28
f 95/4/28 97/5/28 100/4/28
f 101/5/1 97/5/1 99/5/1
f 97/5/1 101/5/1 98/5/1
f 98/5/1 101/5/1 102/5/1
f 99/5/2 97/5/2 101/5/2
f 98/5/2 101/5/2 97/5/2
f 102/5/2 101/5/2 98/5/2
f 96/4/2 100/4/2 95/4/2
f 100/4/2 96/4/2 103/4/2
f 103/4/2 96/4/2 104/4/2
f 95/4/1 100/4/1 96/4/1
f 103/4/1 96/4/1 100/4/1
f 104/4/1 96/4/1 103/4/1
f 96/4/9 102/5/10 104/4/10
f 102/5/10 96/4/9 98/5/9
f 104/4/7 102/5/7 96/4/8
f 98/5/8 96/4/8 102/5/7
f 102/5/10 103/4/44 104/4/10
f 103/4/44 102/5/10 101/5/44
f 104/4/7 103/4/43 102/5/7
f 101/5/43 102/5/7 103/4/43
f 103/4/44 99/5/14 100/4/14
f 99/5/14 103/4/44 101/5/44
f 100/4/13 99/5/13 103/4/43
f 101/5/43 103/4/43 99/5/13
f 107/3/31 106/4/31 105/3/31
f 106/4/31 107/3/31 108/4/31
f 105/3/32 106/4/32 107/3/32
f 108/4/32 107/3/32 106/4/32
f 107/3/33 109/4/33 108/4/33
f 109/4/33 107/3/33 110/3/33
f 108/4/34 109/4/34 107/3/34
f 110/3/34 107/3/34 109/4/34
f 111/4/39 105/3/41 106/4/41
f 105/3/41 111/4/39 112/3/39
f 106/4/42 105/3/42 111/4/40
f 112/3/40 111/4/40 105/3/42
f 109/4/36 114/3/35 113/4/35
f 114/3/35 109/4/36 110/3/36
f 113/4/38 114/3/38 109/4/37
f 110/3/37 109/4/37 114/3/38
f 112/3/1 107/3/1 105/3/1
f 107/3/1 112/3/1 110/3/1
f 110/3/1 112/3/1 114/3/1
f 105/3/2 107/3/2 112/3/2
f 110/3/2 112/3/2 107/3/2
f 114/3/2 112/3/2 110/3/2
f 114/3/35 111/4/39 113/4/35
f 111/4/39 114/3/35 112/3/39
f 113/4/38 111/4/40 114/3/38
f 112/3/40 114/3/38 111/4/40
f 117/5/33 116/4/33 115/4/33
f 116/4/33 117/5/33 118/5/33
f 115/4/34 116/4/34 117/5/34
f 118/5/34 117/5/34 116/4/34
f 117/5/31 120/4/31 119/5/31
f 120/4/31 117/5/31 115/4/31
f 119/5/32 120/4/32 117/5/32
f 115/4/32 117/5/32 120/4/32
f 121/5/1 117/5/1 119/5/1
f 117/5/1 121/5/1 118/5/1
f 118/5/1 121/5/1 122/5/1
f 119/5/2 117/5/2 121/5/2
f 118/5/2 121/5/2 117/5/2
f 122/5/2 121/5/2 118/5/2
f 116/4/2 120/4/2 115/4/2
f 120/4/2 116/4/2 123/4/2
f 123/4/2 116/4/2 124/4/2
f 115/4/1 120/4/1 116/4/1
f 123/4/1 116/4/1 120/4/1
f 124/4/1 116/4/1 123/4/1
f 116/4/36 122/5/35 124/4/35
f 122/5/35 116/4/36 118/5/36
f 124/4/38 122/5/38 116/4/37
f 118/5/37 116/4/37 122/5/38
f 122/5/35 123/4/47 124/4/35
f 123/4/47 122/5/35 121/5/47
f 124/4/38 123/4/48 122/5/38
f 121/5/48 122/5/38 123/4/48
f 123/4/47 119/5/41 120/4/41
f 119/5/41 123/4/47 121/5/47
f 120/4/42 119/5/42 123/4/48
f 121/5/48 123/4/48 119/5/42

