# Created by Kenney (www.kenney.nl)

mtllib template-floor-detail-a.mtl

g template-floor-detail-a

v 2 0 -2 1 1 1
v 2 0 2 1 1 1
v -2 0 -2 1 1 1
v -2 0 2 1 1 1
v -0.2255789 0 0.1721042 1 1 1
v -1.38469 0 -0.1384787 1 1 1
v -0.3316449 0.1 -0.01160758 1 1 1
v -1.200978 0.1 -0.2445447 1 1 1
v 1.211001 0.1 -0.9062624 1 1 1
v 0.9303682 0.1 -0.80022 1 1 1
v 1.104959 0.1 -1.186896 1 1 1
v 0.8243258 0.1 -1.080853 1 1 1
v -0.09870776 0.1 -0.8809408 1 1 1
v -0.9680409 0.1 -1.113878 1 1 1
v -0.3902233 0 0.5248491 1 1 1
v -0.2677488 0.2 0.5955597 1 1 1
v -0.1831681 0 1.29759 1 1 1
v -0.1124574 0.2 1.175115 1 1 1
v 0.4670981 0.2 1.019824 1 1 1
v 0.3118067 0.2 0.4402683 1 1 1
v 0.5895725 0 1.090534 1 1 1
v 0.08500398 0 -0.9870068 1 1 1
v -1.074107 0 -1.29759 1 1 1
v -1.227287 0.05 1.335641 1 1 1
v -1.517065 0.05 1.413287 1 1 1
v -1.304933 0.05 1.045863 1 1 1
v -1.59471 0.05 1.123509 1 1 1
v -1.55242 0 1.474524 1 1 1
v -1.655948 0 1.088154 1 1 1
v -1.16605 0 1.370996 1 1 1
v -1.269577 0 0.9846259 1 1 1
v 0.7598798 0 -1.109952 1 1 1
v 0.9012697 0 -0.735774 1 1 1
v 1.134058 0 -1.251342 1 1 1
v 1.275447 0 -0.8771639 1 1 1
v 1.385044 0 1.396792 1 1 1
v 1.578229 0 1.345028 1 1 1
v 1.415662 0.05 1.41447 1 1 1
v 1.560551 0.05 1.375647 1 1 1
v 1.599374 0.05 1.520536 1 1 1
v 1.454485 0.05 1.559358 1 1 1
v 0.3825174 0 0.3177938 1 1 1
v 1.629993 0 1.538213 1 1 1
v 1.436807 0 1.589977 1 1 1
v -0.9305172 0 -1.720207 1 1 1
v -0.737332 0 -1.771971 1 1 1
v -0.8998986 0.05 -1.702529 1 1 1
v -0.7550097 0.05 -1.741352 1 1 1
v -0.7161869 0.05 -1.596463 1 1 1
v -0.8610757 0.05 -1.55764 1 1 1
v -0.8787534 0 -1.527022 1 1 1
v -0.6855682 0 -1.578785 1 1 1
v -0.6865153 0.1 0.5110617 1 1 1
v -0.6865153 0.1 0.8110617 1 1 1
v -0.9865153 0.1 0.5110617 1 1 1
v -0.9865153 0.1 0.8110617 1 1 1
v -0.6365153 0 0.4610618 1 1 1
v -0.6365153 0 0.8610617 1 1 1
v -1.036515 0 0.4610618 1 1 1
v -1.036515 0 0.8610617 1 1 1
v 0.1962377 0 -0.594766 1 1 1
v 0.2212377 0.1 -0.569766 1 1 1
v 0.1962377 0 -0.394766 1 1 1
v 0.2212377 0.1 -0.419766 1 1 1
v 0.3712377 0.1 -0.569766 1 1 1
v 0.3712377 0.1 -0.419766 1 1 1
v 0.3962377 0 -0.594766 1 1 1
v 0.3962377 0 -0.394766 1 1 1
v 0.8239029 0.05 0.05306924 1 1 1
v 0.5341252 0.05 0.130715 1 1 1
v 0.7462572 0.05 -0.2367085 1 1 1
v 0.4564795 0.05 -0.1590628 1 1 1
v 0.4987698 0 0.1919522 1 1 1
v 0.3952422 0 -0.1944181 1 1 1
v 1.323453 0.1 0.4701758 1 1 1
v 1.245807 0.1 0.7599536 1 1 1
v 1.033675 0.1 0.3925301 1 1 1
v 0.9560292 0.1 0.6823078 1 1 1
v 1.38469 0 0.4348205 1 1 1
v 1.281162 0 0.8211908 1 1 1
v 0.8851402 0 0.08842457 1 1 1
v 0.7816125 0 -0.2979457 1 1 1
v 0.8947919 0 0.7176632 1 1 1
v 0.9983196 0 0.3312929 1 1 1

vn 0 1 0
vn 0 -1 0
vn 0.2132007 0.904534 0.3692745
vn -0.3692745 0.904534 0.2132007
vn 0.1578553 0.9488556 0.2734133
vn -0.2734133 0.9488556 0.1578553
vn -0.1578553 -0.9488556 -0.2734133
vn 0.3692745 -0.904534 -0.2132007
vn -0.2132007 -0.904534 -0.3692745
vn 0.2734133 -0.9488556 -0.1578553
vn 0.5475281 0.7994348 0.2472184
vn -0.2472184 0.7994348 0.5475281
vn 0.2472184 0.7994348 -0.5475281
vn -0.5475281 0.7994348 -0.2472184
vn -0.2472184 -0.7994348 0.5475281
vn 0.2472184 -0.7994348 -0.5475281
vn -0.5475281 -0.7994348 -0.2472184
vn 0.5475281 -0.7994348 0.2472184
vn 0.2734133 0.9488556 -0.1578553
vn -0.1578553 0.9488556 -0.2734133
vn 0.1578553 -0.9488556 0.2734133
vn -0.2734133 -0.9488556 0.1578553
vn -0.7071068 0.5773503 -0.4082483
vn -0.5202672 0.7994348 -0.3003764
vn -0.4082483 0.5773503 0.7071068
vn -0.3003764 0.7994348 0.5202672
vn 0.4082483 -0.5773503 -0.7071068
vn 0.5202672 -0.7994348 0.3003764
vn 0.7071068 -0.5773503 0.4082483
vn 0.3003764 -0.7994348 -0.5202672
vn 0.5202672 0.7994348 0.3003764
vn 0.3003764 0.7994348 -0.5202672
vn -0.3003764 -0.7994348 0.5202672
vn -0.5202672 -0.7994348 -0.3003764
vn 0.7071068 0.5773503 0.4082483
vn -0.7071068 -0.5773503 -0.4082483
vn 0.3692745 0.904534 -0.2132007
vn -0.3692745 -0.904534 0.2132007
vn -0.2132007 0.904534 -0.3692745
vn 0.2132007 -0.904534 0.3692745
vn 0.3676609 0.90541 0.2122691
vn -0.2122691 0.90541 0.3676609
vn 0.2122691 0.90541 -0.3676609
vn -0.3676609 0.90541 -0.2122691
vn -0.2122691 -0.90541 0.3676609
vn 0.2122691 -0.90541 -0.3676609
vn -0.3676609 -0.90541 -0.2122691
vn 0.3676609 -0.90541 0.2122691
vn -0.2886751 0.8164966 0.5
vn -0.5 0.8164966 -0.2886751
vn 0.2886751 -0.8164966 -0.5
vn 0.5 -0.8164966 0.2886751
vn 0.5 0.8164966 0.2886751
vn 0.2886751 0.8164966 -0.5
vn -0.2886751 -0.8164966 0.5
vn -0.5 -0.8164966 -0.2886751
vn -0.7441577 0.5773503 -0.3360001
vn -0.3360001 0.5773503 0.7441577
vn 0.3360001 -0.5773503 -0.7441577
vn 0.7441577 -0.5773503 0.3360001
vn 0.3360001 0.5773503 -0.7441577
vn -0.3360001 -0.5773503 0.7441577
vn 0.7441577 0.5773503 0.3360001
vn -0.7441577 -0.5773503 -0.3360001
vn 0.4082483 0.5773503 -0.7071068
vn -0.4082483 -0.5773503 0.7071068
vn 0.4247964 0.7994348 -0.4247964
vn 0.4247964 0.7994348 0.4247964
vn -0.4247964 0.7994348 -0.4247964
vn -0.4247964 0.7994348 0.4247964
vn 0.4247964 -0.7994348 0.4247964
vn -0.4247964 -0.7994348 -0.4247964
vn -0.4247964 -0.7994348 0.4247964
vn 0.4247964 -0.7994348 -0.4247964
vn 0.5773503 0.5773503 -0.5773503
vn 0.5773503 0.5773503 0.5773503
vn -0.5773503 -0.5773503 -0.5773503
vn -0.5773503 -0.5773503 0.5773503
vn -0.5773503 0.5773503 -0.5773503
vn 0.5773503 -0.5773503 0.5773503
vn -0.5773503 0.5773503 0.5773503
vn 0.5773503 -0.5773503 -0.5773503
vn -0.6666667 0.3333333 -0.6666667
vn -0.5033765 0.7022992 -0.5033765
vn -0.6666667 0.3333333 0.6666667
vn -0.5033765 0.7022992 0.5033765
vn 0.6666667 -0.3333333 -0.6666667
vn 0.5033765 -0.7022992 0.5033765
vn 0.6666667 -0.3333333 0.6666667
vn 0.5033765 -0.7022992 -0.5033765
vn 0.5033765 0.7022992 -0.5033765
vn 0.5033765 0.7022992 0.5033765
vn -0.5033765 -0.7022992 -0.5033765
vn -0.5033765 -0.7022992 0.5033765
vn 0.6666667 0.3333333 -0.6666667
vn -0.6666667 -0.3333333 0.6666667
vn 0.6666667 0.3333333 0.6666667
vn -0.6666667 -0.3333333 -0.6666667
vn 0.5202672 0.7994348 -0.3003764
vn 0.3003764 0.7994348 0.5202672
vn -0.3003764 0.7994348 -0.5202672
vn -0.5202672 0.7994348 0.3003764
vn 0.3003764 -0.7994348 0.5202672
vn -0.3003764 -0.7994348 -0.5202672
vn -0.5202672 -0.7994348 0.3003764
vn 0.5202672 -0.7994348 -0.3003764
vn 0.7071068 0.5773503 -0.4082483
vn 0.4082483 0.5773503 0.7071068
vn -0.4082483 -0.5773503 -0.7071068
vn -0.7071068 -0.5773503 0.4082483
vn -0.7071068 0.5773503 0.4082483
vn 0.7071068 -0.5773503 -0.4082483
vn -0.4082483 0.5773503 -0.7071068
vn 0.4082483 -0.5773503 0.7071068

vt 0.09375 0.025
vt 0.21875 0.145
vt 0.21875 0.185
vt 0.21875 0.225
vt 0.21875 0.165

usemtl colormap

f 3/1/1 2/1/1 1/1/1
f 2/1/1 3/1/1 4/1/1
f 1/1/2 2/1/2 3/1/2
f 4/1/2 3/1/2 2/1/2
f 7/3/5 6/2/4 5/2/3
f 6/2/4 7/3/5 8/3/6
f 5/2/9 6/2/8 7/3/7
f 8/3/10 7/3/7 6/2/8
f 11/3/13 10/3/12 9/3/11
f 10/3/12 11/3/13 12/3/14
f 9/3/17 10/3/16 11/3/15
f 12/3/18 11/3/15 10/3/16
f 14/3/20 7/3/5 13/3/19
f 7/3/5 14/3/20 8/3/6
f 13/3/22 7/3/7 14/3/21
f 8/3/10 14/3/21 7/3/7
f 17/2/25 16/4/24 15/2/23
f 16/4/24 17/2/25 18/4/26
f 15/2/29 16/4/28 17/2/27
f 18/4/30 17/2/27 16/4/28
f 20/4/32 18/4/26 19/4/31
f 18/4/26 20/4/32 16/4/24
f 19/4/34 18/4/30 20/4/33
f 16/4/28 20/4/33 18/4/30
f 19/4/31 17/2/25 21/2/35
f 17/2/25 19/4/31 18/4/26
f 21/2/36 17/2/27 19/4/34
f 18/4/30 19/4/34 17/2/27
f 13/3/19 5/2/3 22/2/37
f 5/2/3 13/3/19 7/3/5
f 22/2/38 5/2/9 13/3/22
f 7/3/7 13/3/22 5/2/9
f 23/2/39 8/3/6 14/3/20
f 8/3/6 23/2/39 6/2/4
f 14/3/21 8/3/10 23/2/40
f 6/2/8 23/2/40 8/3/10
f 26/5/43 25/5/42 24/5/41
f 25/5/42 26/5/43 27/5/44
f 24/5/47 25/5/46 26/5/45
f 27/5/48 26/5/45 25/5/46
f 27/5/44 28/2/49 25/5/42
f 28/2/49 27/5/44 29/2/50
f 25/5/46 28/2/51 27/5/48
f 29/2/52 27/5/48 28/2/51
f 31/2/54 24/5/41 30/2/53
f 24/5/41 31/2/54 26/5/43
f 30/2/56 24/5/47 31/2/55
f 26/5/45 31/2/55 24/5/47
f 29/2/50 26/5/43 31/2/54
f 26/5/43 29/2/50 27/5/44
f 31/2/55 26/5/45 29/2/52
f 27/5/48 29/2/52 26/5/45
f 33/2/58 12/3/14 32/2/57
f 12/3/14 33/2/58 10/3/12
f 32/2/60 12/3/18 33/2/59
f 10/3/16 33/2/59 12/3/18
f 12/3/14 34/2/61 32/2/57
f 34/2/61 12/3/14 11/3/13
f 32/2/60 34/2/62 12/3/18
f 11/3/15 12/3/18 34/2/62
f 9/3/11 33/2/58 35/2/63
f 33/2/58 9/3/11 10/3/12
f 35/2/64 33/2/59 9/3/17
f 10/3/16 9/3/17 33/2/59
f 38/5/24 37/2/65 36/2/23
f 37/2/65 38/5/24 39/5/32
f 36/2/29 37/2/66 38/5/28
f 39/5/33 38/5/28 37/2/66
f 11/3/13 35/2/63 34/2/61
f 35/2/63 11/3/13 9/3/11
f 34/2/62 35/2/64 11/3/15
f 9/3/17 11/3/15 35/2/64
f 39/5/32 41/5/26 40/5/31
f 41/5/26 39/5/32 38/5/24
f 40/5/34 41/5/30 39/5/33
f 38/5/28 39/5/33 41/5/30
f 20/4/32 21/2/35 42/2/65
f 21/2/35 20/4/32 19/4/31
f 42/2/66 21/2/36 20/4/33
f 19/4/34 20/4/33 21/2/36
f 40/5/31 44/2/25 43/2/35
f 44/2/25 40/5/31 41/5/26
f 43/2/36 44/2/27 40/5/34
f 41/5/30 40/5/34 44/2/27
f 24/5/41 28/2/49 30/2/53
f 28/2/49 24/5/41 25/5/42
f 30/2/56 28/2/51 24/5/47
f 25/5/46 24/5/47 28/2/51
f 16/4/24 42/2/65 15/2/23
f 42/2/65 16/4/24 20/4/32
f 15/2/29 42/2/66 16/4/28
f 20/4/33 16/4/28 42/2/66
f 39/5/32 43/2/35 37/2/65
f 43/2/35 39/5/32 40/5/31
f 37/2/66 43/2/36 39/5/33
f 40/5/34 39/5/33 43/2/36
f 23/2/39 13/3/19 22/2/37
f 13/3/19 23/2/39 14/3/20
f 22/2/38 13/3/22 23/2/40
f 14/3/21 23/2/40 13/3/22
f 47/5/24 46/2/65 45/2/23
f 46/2/65 47/5/24 48/5/32
f 45/2/29 46/2/66 47/5/28
f 48/5/33 47/5/28 46/2/66
f 44/2/25 38/5/24 36/2/23
f 38/5/24 44/2/25 41/5/26
f 36/2/29 38/5/28 44/2/27
f 41/5/30 44/2/27 38/5/28
f 48/5/32 50/5/26 49/5/31
f 50/5/26 48/5/32 47/5/24
f 49/5/34 50/5/30 48/5/33
f 47/5/28 48/5/33 50/5/30
f 51/2/25 47/5/24 45/2/23
f 47/5/24 51/2/25 50/5/26
f 45/2/29 47/5/28 51/2/27
f 50/5/30 51/2/27 47/5/28
f 48/5/32 52/2/35 46/2/65
f 52/2/35 48/5/32 49/5/31
f 46/2/66 52/2/36 48/5/33
f 49/5/34 48/5/33 52/2/36
f 49/5/31 51/2/25 52/2/35
f 51/2/25 49/5/31 50/5/26
f 52/2/36 51/2/27 49/5/34
f 50/5/30 49/5/34 51/2/27
f 55/3/69 54/3/68 53/3/67
f 54/3/68 55/3/69 56/3/70
f 53/3/73 54/3/72 55/3/71
f 56/3/74 55/3/71 54/3/72
f 53/3/67 58/2/76 57/2/75
f 58/2/76 53/3/67 54/3/68
f 57/2/78 58/2/77 53/3/73
f 54/3/72 53/3/73 58/2/77
f 55/3/69 57/2/75 59/2/79
f 57/2/75 55/3/69 53/3/67
f 59/2/80 57/2/78 55/3/71
f 53/3/73 55/3/71 57/2/78
f 54/3/68 60/2/81 58/2/76
f 60/2/81 54/3/68 56/3/70
f 58/2/77 60/2/82 54/3/72
f 56/3/74 54/3/72 60/2/82
f 60/2/81 55/3/69 59/2/79
f 55/3/69 60/2/81 56/3/70
f 59/2/80 55/3/71 60/2/82
f 56/3/74 60/2/82 55/3/71
f 63/2/85 62/3/84 61/2/83
f 62/3/84 63/2/85 64/3/86
f 61/2/89 62/3/88 63/2/87
f 64/3/90 63/2/87 62/3/88
f 62/3/84 66/3/92 65/3/91
f 66/3/92 62/3/84 64/3/86
f 65/3/94 66/3/93 62/3/88
f 64/3/90 62/3/88 66/3/93
f 62/3/84 67/2/95 61/2/83
f 67/2/95 62/3/84 65/3/91
f 61/2/89 67/2/96 62/3/88
f 65/3/94 62/3/88 67/2/96
f 66/3/92 63/2/85 68/2/97
f 63/2/85 66/3/92 64/3/86
f 68/2/98 63/2/87 66/3/93
f 64/3/90 66/3/93 63/2/87
f 65/3/91 68/2/97 67/2/95
f 68/2/97 65/3/91 66/3/92
f 67/2/96 68/2/98 65/3/94
f 66/3/93 65/3/94 68/2/98
f 71/5/43 70/5/42 69/5/41
f 70/5/42 71/5/43 72/5/44
f 69/5/47 70/5/46 71/5/45
f 72/5/48 71/5/45 70/5/46
f 72/5/44 73/2/49 70/5/42
f 73/2/49 72/5/44 74/2/50
f 70/5/46 73/2/51 72/5/48
f 74/2/52 72/5/48 73/2/51
f 77/3/101 76/3/100 75/3/99
f 76/3/100 77/3/101 78/3/102
f 75/3/105 76/3/104 77/3/103
f 78/3/106 77/3/103 76/3/104
f 75/3/99 80/2/108 79/2/107
f 80/2/108 75/3/99 76/3/100
f 79/2/110 80/2/109 75/3/105
f 76/3/104 75/3/105 80/2/109
f 69/5/41 73/2/49 81/2/53
f 73/2/49 69/5/41 70/5/42
f 81/2/56 73/2/51 69/5/47
f 70/5/46 69/5/47 73/2/51
f 74/2/50 71/5/43 82/2/54
f 71/5/43 74/2/50 72/5/44
f 82/2/55 71/5/45 74/2/52
f 72/5/48 74/2/52 71/5/45
f 76/3/100 83/2/111 80/2/108
f 83/2/111 76/3/100 78/3/102
f 80/2/109 83/2/112 76/3/104
f 78/3/106 76/3/104 83/2/112
f 77/3/101 79/2/107 84/2/113
f 79/2/107 77/3/101 75/3/99
f 84/2/114 79/2/110 77/3/103
f 75/3/105 77/3/103 79/2/110
f 83/2/111 77/3/101 84/2/113
f 77/3/101 83/2/111 78/3/102
f 84/2/114 77/3/103 83/2/112
f 78/3/106 83/2/112 77/3/103
f 82/2/54 69/5/41 81/2/53
f 69/5/41 82/2/54 71/5/43
f 81/2/56 69/5/47 82/2/55
f 71/5/45 82/2/55 69/5/47

g template-floor-detail-a




usemtl colormap

f 3/1/1 2/1/1 1/1/1
f 2/1/1 3/1/1 4/1/1
f 1/1/2 2/1/2 3/1/2
f 4/1/2 3/1/2 2/1/2
f 7/3/5 6/2/4 5/2/3
f 6/2/4 7/3/5 8/3/6
f 5/2/9 6/2/8 7/3/7
f 8/3/10 7/3/7 6/2/8
f 11/3/13 10/3/12 9/3/11
f 10/3/12 11/3/13 12/3/14
f 9/3/17 10/3/16 11/3/15
f 12/3/18 11/3/15 10/3/16
f 14/3/20 7/3/5 13/3/19
f 7/3/5 14/3/20 8/3/6
f 13/3/22 7/3/7 14/3/21
f 8/3/10 14/3/21 7/3/7
f 17/2/25 16/4/24 15/2/23
f 16/4/24 17/2/25 18/4/26
f 15/2/29 16/4/28 17/2/27
f 18/4/30 17/2/27 16/4/28
f 20/4/32 18/4/26 19/4/31
f 18/4/26 20/4/32 16/4/24
f 19/4/34 18/4/30 20/4/33
f 16/4/28 20/4/33 18/4/30
f 19/4/31 17/2/25 21/2/35
f 17/2/25 19/4/31 18/4/26
f 21/2/36 17/2/27 19/4/34
f 18/4/30 19/4/34 17/2/27
f 13/3/19 5/2/3 22/2/37
f 5/2/3 13/3/19 7/3/5
f 22/2/38 5/2/9 13/3/22
f 7/3/7 13/3/22 5/2/9
f 23/2/39 8/3/6 14/3/20
f 8/3/6 23/2/39 6/2/4
f 14/3/21 8/3/10 23/2/40
f 6/2/8 23/2/40 8/3/10
f 26/5/43 25/5/42 24/5/41
f 25/5/42 26/5/43 27/5/44
f 24/5/47 25/5/46 26/5/45
f 27/5/48 26/5/45 25/5/46
f 27/5/44 28/2/49 25/5/42
f 28/2/49 27/5/44 29/2/50
f 25/5/46 28/2/51 27/5/48
f 29/2/52 27/5/48 28/2/51
f 31/2/54 24/5/41 30/2/53
f 24/5/41 31/2/54 26/5/43
f 30/2/56 24/5/47 31/2/55
f 26/5/45 31/2/55 24/5/47
f 29/2/50 26/5/43 31/2/54
f 26/5/43 29/2/50 27/5/44
f 31/2/55 26/5/45 29/2/52
f 27/5/48 29/2/52 26/5/45
f 33/2/58 12/3/14 32/2/57
f 12/3/14 33/2/58 10/3/12
f 32/2/60 12/3/18 33/2/59
f 10/3/16 33/2/59 12/3/18
f 12/3/14 34/2/61 32/2/57
f 34/2/61 12/3/14 11/3/13
f 32/2/60 34/2/62 12/3/18
f 11/3/15 12/3/18 34/2/62
f 9/3/11 33/2/58 35/2/63
f 33/2/58 9/3/11 10/3/12
f 35/2/64 33/2/59 9/3/17
f 10/3/16 9/3/17 33/2/59
f 38/5/24 37/2/65 36/2/23
f 37/2/65 38/5/24 39/5/32
f 36/2/29 37/2/66 38/5/28
f 39/5/33 38/5/28 37/2/66
f 11/3/13 35/2/63 34/2/61
f 35/2/63 11/3/13 9/3/11
f 34/2/62 35/2/64 11/3/15
f 9/3/17 11/3/15 35/2/64
f 39/5/32 41/5/26 40/5/31
f 41/5/26 39/5/32 38/5/24
f 40/5/34 41/5/30 39/5/33
f 38/5/28 39/5/33 41/5/30
f 20/4/32 21/2/35 42/2/65
f 21/2/35 20/4/32 19/4/31
f 42/2/66 21/2/36 20/4/33
f 19/4/34 20/4/33 21/2/36
f 40/5/31 44/2/25 43/2/35
f 44/2/25 40/5/31 41/5/26
f 43/2/36 44/2/27 40/5/34
f 41/5/30 40/5/34 44/2/27
f 24/5/41 28/2/49 30/2/53
f 28/2/49 24/5/41 25/5/42
f 30/2/56 28/2/51 24/5/47
f 25/5/46 24/5/47 28/2/51
f 16/4/24 42/2/65 15/2/23
f 42/2/65 16/4/24 20/4/32
f 15/2/29 42/2/66 16/4/28
f 20/4/33 16/4/28 42/2/66
f 39/5/32 43/2/35 37/2/65
f 43/2/35 39/5/32 40/5/31
f 37/2/66 43/2/36 39/5/33
f 40/5/34 39/5/33 43/2/36
f 23/2/39 13/3/19 22/2/37
f 13/3/19 23/2/39 14/3/20
f 22/2/38 13/3/22 23/2/40
f 14/3/21 23/2/40 13/3/22
f 47/5/24 46/2/65 45/2/23
f 46/2/65 47/5/24 48/5/32
f 45/2/29 46/2/66 47/5/28
f 48/5/33 47/5/28 46/2/66
f 44/2/25 38/5/24 36/2/23
f 38/5/24 44/2/25 41/5/26
f 36/2/29 38/5/28 44/2/27
f 41/5/30 44/2/27 38/5/28
f 48/5/32 50/5/26 49/5/31
f 50/5/26 48/5/32 47/5/24
f 49/5/34 50/5/30 48/5/33
f 47/5/28 48/5/33 50/5/30
f 51/2/25 47/5/24 45/2/23
f 47/5/24 51/2/25 50/5/26
f 45/2/29 47/5/28 51/2/27
f 50/5/30 51/2/27 47/5/28
f 48/5/32 52/2/35 46/2/65
f 52/2/35 48/5/32 49/5/31
f 46/2/66 52/2/36 48/5/33
f 49/5/34 48/5/33 52/2/36
f 49/5/31 51/2/25 52/2/35
f 51/2/25 49/5/31 50/5/26
f 52/2/36 51/2/27 49/5/34
f 50/5/30 49/5/34 51/2/27
f 55/3/69 54/3/68 53/3/67
f 54/3/68 55/3/69 56/3/70
f 53/3/73 54/3/72 55/3/71
f 56/3/74 55/3/71 54/3/72
f 53/3/67 58/2/76 57/2/75
f 58/2/76 53/3/67 54/3/68
f 57/2/78 58/2/77 53/3/73
f 54/3/72 53/3/73 58/2/77
f 55/3/69 57/2/75 59/2/79
f 57/2/75 55/3/69 53/3/67
f 59/2/80 57/2/78 55/3/71
f 53/3/73 55/3/71 57/2/78
f 54/3/68 60/2/81 58/2/76
f 60/2/81 54/3/68 56/3/70
f 58/2/77 60/2/82 54/3/72
f 56/3/74 54/3/72 60/2/82
f 60/2/81 55/3/69 59/2/79
f 55/3/69 60/2/81 56/3/70
f 59/2/80 55/3/71 60/2/82
f 56/3/74 60/2/82 55/3/71
f 63/2/85 62/3/84 61/2/83
f 62/3/84 63/2/85 64/3/86
f 61/2/89 62/3/88 63/2/87
f 64/3/90 63/2/87 62/3/88
f 62/3/84 66/3/92 65/3/91
f 66/3/92 62/3/84 64/3/86
f 65/3/94 66/3/93 62/3/88
f 64/3/90 62/3/88 66/3/93
f 62/3/84 67/2/95 61/2/83
f 67/2/95 62/3/84 65/3/91
f 61/2/89 67/2/96 62/3/88
f 65/3/94 62/3/88 67/2/96
f 66/3/92 63/2/85 68/2/97
f 63/2/85 66/3/92 64/3/86
f 68/2/98 63/2/87 66/3/93
f 64/3/90 66/3/93 63/2/87
f 65/3/91 68/2/97 67/2/95
f 68/2/97 65/3/91 66/3/92
f 67/2/96 68/2/98 65/3/94
f 66/3/93 65/3/94 68/2/98
f 71/5/43 70/5/42 69/5/41
f 70/5/42 71/5/43 72/5/44
f 69/5/47 70/5/46 71/5/45
f 72/5/48 71/5/45 70/5/46
f 72/5/44 73/2/49 70/5/42
f 73/2/49 72/5/44 74/2/50
f 70/5/46 73/2/51 72/5/48
f 74/2/52 72/5/48 73/2/51
f 77/3/101 76/3/100 75/3/99
f 76/3/100 77/3/101 78/3/102
f 75/3/105 76/3/104 77/3/103
f 78/3/106 77/3/103 76/3/104
f 75/3/99 80/2/108 79/2/107
f 80/2/108 75/3/99 76/3/100
f 79/2/110 80/2/109 75/3/105
f 76/3/104 75/3/105 80/2/109
f 69/5/41 73/2/49 81/2/53
f 73/2/49 69/5/41 70/5/42
f 81/2/56 73/2/51 69/5/47
f 70/5/46 69/5/47 73/2/51
f 74/2/50 71/5/43 82/2/54
f 71/5/43 74/2/50 72/5/44
f 82/2/55 71/5/45 74/2/52
f 72/5/48 74/2/52 71/5/45
f 76/3/100 83/2/111 80/2/108
f 83/2/111 76/3/100 78/3/102
f 80/2/109 83/2/112 76/3/104
f 78/3/106 76/3/104 83/2/112
f 77/3/101 79/2/107 84/2/113
f 79/2/107 77/3/101 75/3/99
f 84/2/114 79/2/110 77/3/103
f 75/3/105 77/3/103 79/2/110
f 83/2/111 77/3/101 84/2/113
f 77/3/101 83/2/111 78/3/102
f 84/2/114 77/3/103 83/2/112
f 78/3/106 83/2/112 77/3/103
f 82/2/54 69/5/41 81/2/53
f 69/5/41 82/2/54 71/5/43
f 81/2/56 69/5/47 82/2/55
f 71/5/45 82/2/55 69/5/47

