# Created by Kenney (www.kenney.nl)

mtllib template-wall-top.mtl

g template-wall-top

v 2 0 -5.960464E-08 1 1 1
v -2 0 0 1 1 1
v 2 3 -5.960464E-08 1 1 1
v -2 3 0 1 1 1
v 2 3 -0.4 1 1 1
v -8.940786E-09 3 -0.6 1 1 1
v -2 3 -0.4 1 1 1
v 2 0 -0.4 1 1 1
v -2 0 -0.4 1 1 1
v -1.03653 2.09453 -0.496347 1 1 1
v -1.03653 2.29453 -0.496347 1 1 1
v -1.086282 2.04453 -0.4913718 1 1 1
v -1.086282 2.34453 -0.4913718 1 1 1
v -1.46978 2.34453 -0.453022 1 1 1
v -1.519532 2.29453 -0.4480468 1 1 1
v -1.519532 2.09453 -0.4480468 1 1 1
v -0.5365838 1.853556 -0.5463417 1 1 1
v -1.46978 2.04453 -0.453022 1 1 1
v -0.486832 1.803556 -0.5513169 1 1 1
v -0.9200813 1.853556 -0.5079919 1 1 1
v -0.486832 1.603556 -0.5513169 1 1 1
v -0.9698333 1.803556 -0.5030167 1 1 1
v -0.9698333 1.603556 -0.5030167 1 1 1
v -0.9200813 1.553556 -0.5079919 1 1 1
v -8.940786E-09 0 -0.6 1 1 1
v -1.132364 0.8070278 -0.4867636 1 1 1
v -0.5365838 1.553556 -0.5463417 1 1 1
v -1.082612 0.7570278 -0.4917388 1 1 1
v -1.082612 0.5570278 -0.4917388 1 1 1
v -1.132364 0.5070278 -0.4867636 1 1 1
v -1.515861 0.5070278 -0.4484138 1 1 1
v -1.565613 0.5570278 -0.4434386 1 1 1
v -1.515861 0.8070278 -0.4484138 1 1 1
v -1.565613 0.7570278 -0.4434386 1 1 1
v 1.484265 1.460278 -0.4515735 1 1 1
v 1.484265 1.660278 -0.4515735 1 1 1
v 1.434513 1.710278 -0.4565487 1 1 1
v 1.434513 1.410278 -0.4565487 1 1 1
v 1.051016 1.410278 -0.4948984 1 1 1
v 1.051016 1.710278 -0.4948984 1 1 1
v 1.001264 1.660278 -0.4998736 1 1 1
v 1.001264 1.460278 -0.4998736 1 1 1
v -1.469779 2.04453 -0.453022 1 1 1
v -1.086282 2.04453 -0.4913718 1 1 1
v -1.474754 2.04453 -0.5027739 1 1 1
v -1.091257 2.04453 -0.5411236 1 1 1
v -1.086282 2.34453 -0.4913718 1 1 1
v -1.469779 2.34453 -0.4530221 1 1 1
v -1.091257 2.34453 -0.5411236 1 1 1
v -1.474754 2.34453 -0.5027739 1 1 1
v -1.041505 2.09453 -0.5460988 1 1 1
v -1.03653 2.09453 -0.496347 1 1 1
v -1.041505 2.29453 -0.5460988 1 1 1
v -1.03653 2.29453 -0.496347 1 1 1
v -1.519531 2.09453 -0.4480468 1 1 1
v -1.524506 2.09453 -0.4977987 1 1 1
v -1.519531 2.29453 -0.4480469 1 1 1
v -1.524506 2.29453 -0.4977987 1 1 1
v -0.9200813 1.553556 -0.5079919 1 1 1
v -0.5365838 1.553556 -0.5463417 1 1 1
v -0.9250565 1.553556 -0.5577437 1 1 1
v -0.541559 1.553556 -0.5960935 1 1 1
v -0.5365838 1.853556 -0.5463417 1 1 1
v -0.9200813 1.853556 -0.5079919 1 1 1
v -0.541559 1.853556 -0.5960935 1 1 1
v -0.9250565 1.853556 -0.5577438 1 1 1
v -0.4918071 1.603556 -0.6010687 1 1 1
v -0.4868319 1.603556 -0.5513169 1 1 1
v -0.4918071 1.803556 -0.6010687 1 1 1
v -0.4868319 1.803556 -0.5513169 1 1 1
v -0.9698331 1.603556 -0.5030167 1 1 1
v -0.9748083 1.603556 -0.5527686 1 1 1
v -0.9698331 1.803556 -0.5030167 1 1 1
v -0.9748083 1.803556 -0.5527686 1 1 1
v -1.515861 0.5070277 -0.4484138 1 1 1
v -1.132363 0.5070277 -0.4867636 1 1 1
v -1.520836 0.5070277 -0.4981657 1 1 1
v -1.137338 0.5070277 -0.5365155 1 1 1
v -1.132363 0.8070278 -0.4867636 1 1 1
v -1.515861 0.8070278 -0.4484138 1 1 1
v -1.137338 0.8070278 -0.5365155 1 1 1
v -1.520836 0.8070278 -0.4981657 1 1 1
v -1.087587 0.5570277 -0.5414907 1 1 1
v -1.082611 0.5570277 -0.4917388 1 1 1
v -1.087587 0.7570277 -0.5414907 1 1 1
v -1.082611 0.7570277 -0.4917388 1 1 1
v -1.565613 0.5570277 -0.4434386 1 1 1
v -1.570588 0.5570277 -0.4931905 1 1 1
v -1.565613 0.7570277 -0.4434386 1 1 1
v -1.570588 0.7570277 -0.4931905 1 1 1
v 1.051017 1.410278 -0.4948984 1 1 1
v 1.434514 1.410278 -0.4565487 1 1 1
v 1.055992 1.410278 -0.5446503 1 1 1
v 1.439489 1.410278 -0.5063006 1 1 1
v 1.434514 1.710278 -0.4565487 1 1 1
v 1.051017 1.710278 -0.4948984 1 1 1
v 1.439489 1.710278 -0.5063006 1 1 1
v 1.055992 1.710278 -0.5446503 1 1 1
v 1.489241 1.460278 -0.5013254 1 1 1
v 1.484266 1.460278 -0.4515735 1 1 1
v 1.489241 1.660278 -0.5013254 1 1 1
v 1.484266 1.660278 -0.4515735 1 1 1
v 1.001265 1.460278 -0.4998736 1 1 1
v 1.00624 1.460278 -0.5496255 1 1 1
v 1.001265 1.660278 -0.4998736 1 1 1
v 1.00624 1.660278 -0.5496255 1 1 1

vn 0 0 1
vn 0 0 -1
vn 0 1 0
vn 0 -1 0
vn 1 0 0
vn -1 0 0
vn 0.09950373 0 0.9950371
vn -0.0995037 0 0.9950371
vn -0.09950373 0 -0.9950371
vn 0.0995037 0 -0.9950371
vn -0.3807842 -0.9238796 0.03807854
vn 0.3807842 -0.9238796 -0.03807832
vn 0.3807842 0.9238796 -0.03807854
vn -0.3807842 0.9238796 0.03807832
vn 0.9192945 -0.3826835 -0.09192942
vn 0.9192945 0.3826835 -0.09192951
vn -0.9192945 -0.3826835 0.09192951
vn -0.9192945 0.3826835 0.09192942
vn -0.09950374 -1.192093E-07 -0.9950373
vn 0.09950374 1.192093E-07 0.9950373
vn -0.3807842 -0.9238796 -0.03807831
vn 0.3807842 -0.9238796 0.03807853
vn 0.3807842 0.9238796 0.03807831
vn -0.3807842 0.9238796 -0.03807853
vn 0.9192945 -0.3826835 0.09192948
vn 0.9192945 0.3826835 0.09192939
vn -0.9192945 -0.3826835 -0.09192939
vn -0.9192945 0.3826835 -0.09192948
vn 0.09950371 -1.192093E-07 -0.9950373
vn -0.09950371 1.192093E-07 0.9950373

vt 0.34375 0.145
vt 0.34375 0.225
vt 0.34375 0.2008541
vt 0.34375 0.2061875
vt 0.34375 0.1995208
vt 0.34375 0.2075208
vt 0.34375 0.1944281
vt 0.34375 0.1930948
vt 0.34375 0.1877615
vt 0.34375 0.1864281
vt 0.34375 0.1665207
vt 0.34375 0.1651874
vt 0.34375 0.1598541
vt 0.34375 0.1585207
vt 0.34375 0.1839407
vt 0.34375 0.1892741
vt 0.34375 0.1906074
vt 0.34375 0.1826074
vt 0.34375 0.075
vt 0.34375 0.175

usemtl colormap

f 3/2/1 2/1/1 1/1/1
f 2/1/1 3/2/1 4/2/1
f 1/1/2 2/1/2 3/2/2
f 4/2/2 3/2/2 2/1/2
f 5/2/3 4/2/3 3/2/3
f 4/2/3 5/2/3 6/2/3
f 4/2/3 6/2/3 7/2/3
f 3/2/4 4/2/4 5/2/4
f 6/2/4 5/2/4 4/2/4
f 7/2/4 6/2/4 4/2/4
f 3/2/5 8/1/5 5/2/5
f 8/1/5 3/2/5 1/1/5
f 5/2/6 8/1/6 3/2/6
f 1/1/6 3/2/6 8/1/6
f 2/1/6 7/2/6 9/1/6
f 7/2/6 2/1/6 4/2/6
f 9/1/5 7/2/5 2/1/5
f 4/2/5 2/1/5 7/2/5
f 11/4/7 10/3/7 6/2/1
f 10/3/7 12/5/7 6/2/1
f 13/6/7 11/4/7 6/2/1
f 7/2/7 13/6/7 6/2/1
f 13/6/7 7/2/7 14/6/7
f 14/6/7 7/2/7 15/4/7
f 15/4/7 7/2/7 16/3/7
f 12/5/7 17/7/7 6/2/1
f 18/5/7 17/7/7 12/5/7
f 17/7/7 19/8/7 6/2/1
f 17/7/7 18/5/7 20/7/7
f 19/8/7 21/9/7 6/2/1
f 20/7/7 18/5/7 22/8/7
f 22/8/7 18/5/7 23/9/7
f 23/9/7 18/5/7 24/10/7
f 6/2/1 21/9/7 25/1/1
f 18/5/7 16/3/7 26/11/7
f 24/10/7 18/5/7 26/11/7
f 16/3/7 7/2/7 26/11/7
f 24/10/7 26/11/7 27/10/7
f 27/10/7 26/11/7 21/9/7
f 26/11/7 28/12/7 21/9/7
f 28/12/7 29/13/7 21/9/7
f 29/13/7 25/1/1 21/9/7
f 30/14/7 25/1/1 29/13/7
f 31/14/7 25/1/1 30/14/7
f 25/1/1 31/14/7 9/1/7
f 32/13/7 9/1/7 31/14/7
f 7/2/7 9/1/7 32/13/7
f 26/11/7 7/2/7 33/11/7
f 34/12/7 7/2/7 32/13/7
f 33/11/7 7/2/7 34/12/7
f 36/16/8 35/15/8 5/2/8
f 37/17/8 36/16/8 5/2/8
f 5/2/8 35/15/8 8/1/8
f 6/2/1 37/17/8 5/2/8
f 38/18/8 8/1/8 35/15/8
f 39/18/8 8/1/8 38/18/8
f 37/17/8 6/2/1 40/17/8
f 40/17/8 6/2/1 41/16/8
f 39/18/8 42/15/8 8/1/8
f 41/16/8 6/2/1 42/15/8
f 8/1/8 42/15/8 25/1/1
f 6/2/1 25/1/1 42/15/8
f 6/2/2 10/3/9 11/4/9
f 6/2/2 11/4/9 13/6/9
f 6/2/2 13/6/9 7/2/9
f 14/6/9 7/2/9 13/6/9
f 15/4/9 7/2/9 14/6/9
f 6/2/2 12/5/9 10/3/9
f 16/3/9 7/2/9 15/4/9
f 6/2/2 17/7/9 12/5/9
f 12/5/9 17/7/9 18/5/9
f 6/2/2 19/8/9 17/7/9
f 20/7/9 18/5/9 17/7/9
f 6/2/2 21/9/9 19/8/9
f 22/8/9 18/5/9 20/7/9
f 23/9/9 18/5/9 22/8/9
f 24/10/9 18/5/9 23/9/9
f 25/1/2 21/9/9 6/2/2
f 26/11/9 16/3/9 18/5/9
f 26/11/9 18/5/9 24/10/9
f 26/11/9 7/2/9 16/3/9
f 27/10/9 26/11/9 24/10/9
f 21/9/9 26/11/9 27/10/9
f 21/9/9 28/12/9 26/11/9
f 21/9/9 29/13/9 28/12/9
f 21/9/9 25/1/2 29/13/9
f 29/13/9 25/1/2 30/14/9
f 30/14/9 25/1/2 31/14/9
f 9/1/9 31/14/9 25/1/2
f 31/14/9 9/1/9 32/13/9
f 32/13/9 9/1/9 7/2/9
f 33/11/9 7/2/9 26/11/9
f 32/13/9 7/2/9 34/12/9
f 34/12/9 7/2/9 33/11/9
f 5/2/10 35/15/10 36/16/10
f 5/2/10 36/16/10 37/17/10
f 8/1/10 35/15/10 5/2/10
f 5/2/10 37/17/10 6/2/2
f 35/15/10 8/1/10 38/18/10
f 38/18/10 8/1/10 39/18/10
f 40/17/10 6/2/2 37/17/10
f 41/16/10 6/2/2 40/17/10
f 8/1/10 42/15/10 39/18/10
f 42/15/10 6/2/2 41/16/10
f 25/1/2 42/15/10 8/1/10
f 42/15/10 25/1/2 6/2/2
f 45/20/11 44/19/12 43/19/11
f 44/19/12 45/20/11 46/20/12
f 43/19/13 44/19/14 45/20/13
f 46/20/14 45/20/13 44/19/14
f 49/20/13 48/19/14 47/19/13
f 48/19/14 49/20/13 50/20/14
f 47/19/11 48/19/12 49/20/11
f 50/20/12 49/20/11 48/19/12
f 53/20/16 52/19/15 51/20/15
f 52/19/15 53/20/16 54/19/16
f 51/20/18 52/19/18 53/20/17
f 54/19/17 53/20/17 52/19/18
f 57/19/18 56/20/17 55/19/17
f 56/20/17 57/19/18 58/20/18
f 55/19/16 56/20/16 57/19/15
f 58/20/15 57/19/15 56/20/16
f 50/20/14 57/19/18 48/19/14
f 57/19/18 50/20/14 58/20/18
f 48/19/12 57/19/15 50/20/12
f 58/20/15 50/20/12 57/19/15
f 46/20/12 52/19/15 44/19/12
f 52/19/15 46/20/12 51/20/15
f 44/19/14 52/19/18 46/20/14
f 51/20/18 46/20/14 52/19/18
f 53/20/16 47/19/13 54/19/16
f 47/19/13 53/20/16 49/20/13
f 54/19/17 47/19/11 53/20/17
f 49/20/11 53/20/17 47/19/11
f 56/20/17 43/19/11 55/19/17
f 43/19/11 56/20/17 45/20/11
f 55/19/16 43/19/13 56/20/16
f 45/20/13 56/20/16 43/19/13
f 46/20/19 53/20/19 51/20/19
f 53/20/19 46/20/19 49/20/19
f 49/20/19 46/20/19 45/20/19
f 49/20/19 45/20/19 50/20/19
f 50/20/19 45/20/19 56/20/19
f 50/20/19 56/20/19 58/20/19
f 51/20/20 53/20/20 46/20/20
f 49/20/20 46/20/20 53/20/20
f 45/20/20 46/20/20 49/20/20
f 50/20/20 45/20/20 49/20/20
f 56/20/20 45/20/20 50/20/20
f 58/20/20 56/20/20 50/20/20
f 47/19/20 52/19/20 54/19/20
f 52/19/20 47/19/20 44/19/20
f 44/19/20 47/19/20 48/19/20
f 44/19/20 48/19/20 43/19/20
f 43/19/20 48/19/20 57/19/20
f 43/19/20 57/19/20 55/19/20
f 54/19/19 52/19/19 47/19/19
f 44/19/19 47/19/19 52/19/19
f 48/19/19 47/19/19 44/19/19
f 43/19/19 48/19/19 44/19/19
f 57/19/19 48/19/19 43/19/19
f 55/19/19 57/19/19 43/19/19
f 61/20/11 60/19/12 59/19/11
f 60/19/12 61/20/11 62/20/12
f 59/19/13 60/19/14 61/20/13
f 62/20/14 61/20/13 60/19/14
f 65/20/13 64/19/14 63/19/13
f 64/19/14 65/20/13 66/20/14
f 63/19/11 64/19/12 65/20/11
f 66/20/12 65/20/11 64/19/12
f 69/20/16 68/19/15 67/20/15
f 68/19/15 69/20/16 70/19/16
f 67/20/18 68/19/18 69/20/17
f 70/19/17 69/20/17 68/19/18
f 73/19/18 72/20/17 71/19/17
f 72/20/17 73/19/18 74/20/18
f 71/19/16 72/20/16 73/19/15
f 74/20/15 73/19/15 72/20/16
f 66/20/14 73/19/18 64/19/14
f 73/19/18 66/20/14 74/20/18
f 64/19/12 73/19/15 66/20/12
f 74/20/15 66/20/12 73/19/15
f 62/20/12 68/19/15 60/19/12
f 68/19/15 62/20/12 67/20/15
f 60/19/14 68/19/18 62/20/14
f 67/20/18 62/20/14 68/19/18
f 69/20/16 63/19/13 70/19/16
f 63/19/13 69/20/16 65/20/13
f 70/19/17 63/19/11 69/20/17
f 65/20/11 69/20/17 63/19/11
f 72/20/17 59/19/11 71/19/17
f 59/19/11 72/20/17 61/20/11
f 71/19/16 59/19/13 72/20/16
f 61/20/13 72/20/16 59/19/13
f 62/20/19 69/20/19 67/20/19
f 69/20/19 62/20/19 65/20/19
f 65/20/19 62/20/19 61/20/19
f 65/20/19 61/20/19 66/20/19
f 66/20/19 61/20/19 72/20/19
f 66/20/19 72/20/19 74/20/19
f 67/20/20 69/20/20 62/20/20
f 65/20/20 62/20/20 69/20/20
f 61/20/20 62/20/20 65/20/20
f 66/20/20 61/20/20 65/20/20
f 72/20/20 61/20/20 66/20/20
f 74/20/20 72/20/20 66/20/20
f 63/19/20 68/19/20 70/19/20
f 68/19/20 63/19/20 60/19/20
f 60/19/20 63/19/20 64/19/20
f 60/19/20 64/19/20 59/19/20
f 59/19/20 64/19/20 73/19/20
f 59/19/20 73/19/20 71/19/20
f 70/19/19 68/19/19 63/19/19
f 60/19/19 63/19/19 68/19/19
f 64/19/19 63/19/19 60/19/19
f 59/19/19 64/19/19 60/19/19
f 73/19/19 64/19/19 59/19/19
f 71/19/19 73/19/19 59/19/19
f 77/20/11 76/19/12 75/19/11
f 76/19/12 77/20/11 78/20/12
f 75/19/13 76/19/14 77/20/13
f 78/20/14 77/20/13 76/19/14
f 81/20/13 80/19/14 79/19/13
f 80/19/14 81/20/13 82/20/14
f 79/19/11 80/19/12 81/20/11
f 82/20/12 81/20/11 80/19/12
f 85/20/16 84/19/15 83/20/15
f 84/19/15 85/20/16 86/19/16
f 83/20/18 84/19/18 85/20/17
f 86/19/17 85/20/17 84/19/18
f 89/19/18 88/20/17 87/19/17
f 88/20/17 89/19/18 90/20/18
f 87/19/16 88/20/16 89/19/15
f 90/20/15 89/19/15 88/20/16
f 82/20/14 89/19/18 80/19/14
f 89/19/18 82/20/14 90/20/18
f 80/19/12 89/19/15 82/20/12
f 90/20/15 82/20/12 89/19/15
f 78/20/12 84/19/15 76/19/12
f 84/19/15 78/20/12 83/20/15
f 76/19/14 84/19/18 78/20/14
f 83/20/18 78/20/14 84/19/18
f 85/20/16 79/19/13 86/19/16
f 79/19/13 85/20/16 81/20/13
f 86/19/17 79/19/11 85/20/17
f 81/20/11 85/20/17 79/19/11
f 88/20/17 75/19/11 87/19/17
f 75/19/11 88/20/17 77/20/11
f 87/19/16 75/19/13 88/20/16
f 77/20/13 88/20/16 75/19/13
f 78/20/19 85/20/19 83/20/19
f 85/20/19 78/20/19 81/20/19
f 81/20/19 78/20/19 77/20/19
f 81/20/19 77/20/19 82/20/19
f 82/20/19 77/20/19 88/20/19
f 82/20/19 88/20/19 90/20/19
f 83/20/20 85/20/20 78/20/20
f 81/20/20 78/20/20 85/20/20
f 77/20/20 78/20/20 81/20/20
f 82/20/20 77/20/20 81/20/20
f 88/20/20 77/20/20 82/20/20
f 90/20/20 88/20/20 82/20/20
f 79/19/20 84/19/20 86/19/20
f 84/19/20 79/19/20 76/19/20
f 76/19/20 79/19/20 80/19/20
f 76/19/20 80/19/20 75/19/20
f 75/19/20 80/19/20 89/19/20
f 75/19/20 89/19/20 87/19/20
f 86/19/19 84/19/19 79/19/19
f 76/19/19 79/19/19 84/19/19
f 80/19/19 79/19/19 76/19/19
f 75/19/19 80/19/19 76/19/19
f 89/19/19 80/19/19 75/19/19
f 87/19/19 89/19/19 75/19/19
f 93/20/21 92/19/22 91/19/21
f 92/19/22 93/20/21 94/20/22
f 91/19/23 92/19/24 93/20/23
f 94/20/24 93/20/23 92/19/24
f 97/20/23 96/19/24 95/19/23
f 96/19/24 97/20/23 98/20/24
f 95/19/21 96/19/22 97/20/21
f 98/20/22 97/20/21 96/19/22
f 101/20/26 100/19/25 99/20/25
f 100/19/25 101/20/26 102/19/26
f 99/20/28 100/19/28 101/20/27
f 102/19/27 101/20/27 100/19/28
f 105/19/28 104/20/27 103/19/27
f 104/20/27 105/19/28 106/20/28
f 103/19/26 104/20/26 105/19/25
f 106/20/25 105/19/25 104/20/26
f 98/20/24 105/19/28 96/19/24
f 105/19/28 98/20/24 106/20/28
f 96/19/22 105/19/25 98/20/22
f 106/20/25 98/20/22 105/19/25
f 94/20/22 100/19/25 92/19/22
f 100/19/25 94/20/22 99/20/25
f 92/19/24 100/19/28 94/20/24
f 99/20/28 94/20/24 100/19/28
f 101/20/26 95/19/23 102/19/26
f 95/19/23 101/20/26 97/20/23
f 102/19/27 95/19/21 101/20/27
f 97/20/21 101/20/27 95/19/21
f 104/20/27 91/19/21 103/19/27
f 91/19/21 104/20/27 93/20/21
f 103/19/26 91/19/23 104/20/26
f 93/20/23 104/20/26 91/19/23
f 94/20/29 101/20/29 99/20/29
f 101/20/29 94/20/29 97/20/29
f 97/20/29 94/20/29 93/20/29
f 97/20/29 93/20/29 98/20/29
f 98/20/29 93/20/29 104/20/29
f 98/20/29 104/20/29 106/20/29
f 99/20/30 101/20/30 94/20/30
f 97/20/30 94/20/30 101/20/30
f 93/20/30 94/20/30 97/20/30
f 98/20/30 93/20/30 97/20/30
f 104/20/30 93/20/30 98/20/30
f 106/20/30 104/20/30 98/20/30
f 95/19/30 100/19/30 102/19/30
f 100/19/30 95/19/30 92/19/30
f 92/19/30 95/19/30 96/19/30
f 92/19/30 96/19/30 91/19/30
f 91/19/30 96/19/30 105/19/30
f 91/19/30 105/19/30 103/19/30
f 102/19/29 100/19/29 95/19/29
f 92/19/29 95/19/29 100/19/29
f 96/19/29 95/19/29 92/19/29
f 91/19/29 96/19/29 92/19/29
f 105/19/29 96/19/29 91/19/29
f 103/19/29 105/19/29 91/19/29

g template-wall-top




usemtl colormap

f 3/2/1 2/1/1 1/1/1
f 2/1/1 3/2/1 4/2/1
f 1/1/2 2/1/2 3/2/2
f 4/2/2 3/2/2 2/1/2
f 5/2/3 4/2/3 3/2/3
f 4/2/3 5/2/3 6/2/3
f 4/2/3 6/2/3 7/2/3
f 3/2/4 4/2/4 5/2/4
f 6/2/4 5/2/4 4/2/4
f 7/2/4 6/2/4 4/2/4
f 3/2/5 8/1/5 5/2/5
f 8/1/5 3/2/5 1/1/5
f 5/2/6 8/1/6 3/2/6
f 1/1/6 3/2/6 8/1/6
f 2/1/6 7/2/6 9/1/6
f 7/2/6 2/1/6 4/2/6
f 9/1/5 7/2/5 2/1/5
f 4/2/5 2/1/5 7/2/5
f 11/4/7 10/3/7 6/2/1
f 10/3/7 12/5/7 6/2/1
f 13/6/7 11/4/7 6/2/1
f 7/2/7 13/6/7 6/2/1
f 13/6/7 7/2/7 14/6/7
f 14/6/7 7/2/7 15/4/7
f 15/4/7 7/2/7 16/3/7
f 12/5/7 17/7/7 6/2/1
f 18/5/7 17/7/7 12/5/7
f 17/7/7 19/8/7 6/2/1
f 17/7/7 18/5/7 20/7/7
f 19/8/7 21/9/7 6/2/1
f 20/7/7 18/5/7 22/8/7
f 22/8/7 18/5/7 23/9/7
f 23/9/7 18/5/7 24/10/7
f 6/2/1 21/9/7 25/1/1
f 18/5/7 16/3/7 26/11/7
f 24/10/7 18/5/7 26/11/7
f 16/3/7 7/2/7 26/11/7
f 24/10/7 26/11/7 27/10/7
f 27/10/7 26/11/7 21/9/7
f 26/11/7 28/12/7 21/9/7
f 28/12/7 29/13/7 21/9/7
f 29/13/7 25/1/1 21/9/7
f 30/14/7 25/1/1 29/13/7
f 31/14/7 25/1/1 30/14/7
f 25/1/1 31/14/7 9/1/7
f 32/13/7 9/1/7 31/14/7
f 7/2/7 9/1/7 32/13/7
f 26/11/7 7/2/7 33/11/7
f 34/12/7 7/2/7 32/13/7
f 33/11/7 7/2/7 34/12/7
f 36/16/8 35/15/8 5/2/8
f 37/17/8 36/16/8 5/2/8
f 5/2/8 35/15/8 8/1/8
f 6/2/1 37/17/8 5/2/8
f 38/18/8 8/1/8 35/15/8
f 39/18/8 8/1/8 38/18/8
f 37/17/8 6/2/1 40/17/8
f 40/17/8 6/2/1 41/16/8
f 39/18/8 42/15/8 8/1/8
f 41/16/8 6/2/1 42/15/8
f 8/1/8 42/15/8 25/1/1
f 6/2/1 25/1/1 42/15/8
f 6/2/2 10/3/9 11/4/9
f 6/2/2 11/4/9 13/6/9
f 6/2/2 13/6/9 7/2/9
f 14/6/9 7/2/9 13/6/9
f 15/4/9 7/2/9 14/6/9
f 6/2/2 12/5/9 10/3/9
f 16/3/9 7/2/9 15/4/9
f 6/2/2 17/7/9 12/5/9
f 12/5/9 17/7/9 18/5/9
f 6/2/2 19/8/9 17/7/9
f 20/7/9 18/5/9 17/7/9
f 6/2/2 21/9/9 19/8/9
f 22/8/9 18/5/9 20/7/9
f 23/9/9 18/5/9 22/8/9
f 24/10/9 18/5/9 23/9/9
f 25/1/2 21/9/9 6/2/2
f 26/11/9 16/3/9 18/5/9
f 26/11/9 18/5/9 24/10/9
f 26/11/9 7/2/9 16/3/9
f 27/10/9 26/11/9 24/10/9
f 21/9/9 26/11/9 27/10/9
f 21/9/9 28/12/9 26/11/9
f 21/9/9 29/13/9 28/12/9
f 21/9/9 25/1/2 29/13/9
f 29/13/9 25/1/2 30/14/9
f 30/14/9 25/1/2 31/14/9
f 9/1/9 31/14/9 25/1/2
f 31/14/9 9/1/9 32/13/9
f 32/13/9 9/1/9 7/2/9
f 33/11/9 7/2/9 26/11/9
f 32/13/9 7/2/9 34/12/9
f 34/12/9 7/2/9 33/11/9
f 5/2/10 35/15/10 36/16/10
f 5/2/10 36/16/10 37/17/10
f 8/1/10 35/15/10 5/2/10
f 5/2/10 37/17/10 6/2/2
f 35/15/10 8/1/10 38/18/10
f 38/18/10 8/1/10 39/18/10
f 40/17/10 6/2/2 37/17/10
f 41/16/10 6/2/2 40/17/10
f 8/1/10 42/15/10 39/18/10
f 42/15/10 6/2/2 41/16/10
f 25/1/2 42/15/10 8/1/10
f 42/15/10 25/1/2 6/2/2
f 45/20/11 44/19/12 43/19/11
f 44/19/12 45/20/11 46/20/12
f 43/19/13 44/19/14 45/20/13
f 46/20/14 45/20/13 44/19/14
f 49/20/13 48/19/14 47/19/13
f 48/19/14 49/20/13 50/20/14
f 47/19/11 48/19/12 49/20/11
f 50/20/12 49/20/11 48/19/12
f 53/20/16 52/19/15 51/20/15
f 52/19/15 53/20/16 54/19/16
f 51/20/18 52/19/18 53/20/17
f 54/19/17 53/20/17 52/19/18
f 57/19/18 56/20/17 55/19/17
f 56/20/17 57/19/18 58/20/18
f 55/19/16 56/20/16 57/19/15
f 58/20/15 57/19/15 56/20/16
f 50/20/14 57/19/18 48/19/14
f 57/19/18 50/20/14 58/20/18
f 48/19/12 57/19/15 50/20/12
f 58/20/15 50/20/12 57/19/15
f 46/20/12 52/19/15 44/19/12
f 52/19/15 46/20/12 51/20/15
f 44/19/14 52/19/18 46/20/14
f 51/20/18 46/20/14 52/19/18
f 53/20/16 47/19/13 54/19/16
f 47/19/13 53/20/16 49/20/13
f 54/19/17 47/19/11 53/20/17
f 49/20/11 53/20/17 47/19/11
f 56/20/17 43/19/11 55/19/17
f 43/19/11 56/20/17 45/20/11
f 55/19/16 43/19/13 56/20/16
f 45/20/13 56/20/16 43/19/13
f 46/20/19 53/20/19 51/20/19
f 53/20/19 46/20/19 49/20/19
f 49/20/19 46/20/19 45/20/19
f 49/20/19 45/20/19 50/20/19
f 50/20/19 45/20/19 56/20/19
f 50/20/19 56/20/19 58/20/19
f 51/20/20 53/20/20 46/20/20
f 49/20/20 46/20/20 53/20/20
f 45/20/20 46/20/20 49/20/20
f 50/20/20 45/20/20 49/20/20
f 56/20/20 45/20/20 50/20/20
f 58/20/20 56/20/20 50/20/20
f 47/19/20 52/19/20 54/19/20
f 52/19/20 47/19/20 44/19/20
f 44/19/20 47/19/20 48/19/20
f 44/19/20 48/19/20 43/19/20
f 43/19/20 48/19/20 57/19/20
f 43/19/20 57/19/20 55/19/20
f 54/19/19 52/19/19 47/19/19
f 44/19/19 47/19/19 52/19/19
f 48/19/19 47/19/19 44/19/19
f 43/19/19 48/19/19 44/19/19
f 57/19/19 48/19/19 43/19/19
f 55/19/19 57/19/19 43/19/19
f 61/20/11 60/19/12 59/19/11
f 60/19/12 61/20/11 62/20/12
f 59/19/13 60/19/14 61/20/13
f 62/20/14 61/20/13 60/19/14
f 65/20/13 64/19/14 63/19/13
f 64/19/14 65/20/13 66/20/14
f 63/19/11 64/19/12 65/20/11
f 66/20/12 65/20/11 64/19/12
f 69/20/16 68/19/15 67/20/15
f 68/19/15 69/20/16 70/19/16
f 67/20/18 68/19/18 69/20/17
f 70/19/17 69/20/17 68/19/18
f 73/19/18 72/20/17 71/19/17
f 72/20/17 73/19/18 74/20/18
f 71/19/16 72/20/16 73/19/15
f 74/20/15 73/19/15 72/20/16
f 66/20/14 73/19/18 64/19/14
f 73/19/18 66/20/14 74/20/18
f 64/19/12 73/19/15 66/20/12
f 74/20/15 66/20/12 73/19/15
f 62/20/12 68/19/15 60/19/12
f 68/19/15 62/20/12 67/20/15
f 60/19/14 68/19/18 62/20/14
f 67/20/18 62/20/14 68/19/18
f 69/20/16 63/19/13 70/19/16
f 63/19/13 69/20/16 65/20/13
f 70/19/17 63/19/11 69/20/17
f 65/20/11 69/20/17 63/19/11
f 72/20/17 59/19/11 71/19/17
f 59/19/11 72/20/17 61/20/11
f 71/19/16 59/19/13 72/20/16
f 61/20/13 72/20/16 59/19/13
f 62/20/19 69/20/19 67/20/19
f 69/20/19 62/20/19 65/20/19
f 65/20/19 62/20/19 61/20/19
f 65/20/19 61/20/19 66/20/19
f 66/20/19 61/20/19 72/20/19
f 66/20/19 72/20/19 74/20/19
f 67/20/20 69/20/20 62/20/20
f 65/20/20 62/20/20 69/20/20
f 61/20/20 62/20/20 65/20/20
f 66/20/20 61/20/20 65/20/20
f 72/20/20 61/20/20 66/20/20
f 74/20/20 72/20/20 66/20/20
f 63/19/20 68/19/20 70/19/20
f 68/19/20 63/19/20 60/19/20
f 60/19/20 63/19/20 64/19/20
f 60/19/20 64/19/20 59/19/20
f 59/19/20 64/19/20 73/19/20
f 59/19/20 73/19/20 71/19/20
f 70/19/19 68/19/19 63/19/19
f 60/19/19 63/19/19 68/19/19
f 64/19/19 63/19/19 60/19/19
f 59/19/19 64/19/19 60/19/19
f 73/19/19 64/19/19 59/19/19
f 71/19/19 73/19/19 59/19/19
f 77/20/11 76/19/12 75/19/11
f 76/19/12 77/20/11 78/20/12
f 75/19/13 76/19/14 77/20/13
f 78/20/14 77/20/13 76/19/14
f 81/20/13 80/19/14 79/19/13
f 80/19/14 81/20/13 82/20/14
f 79/19/11 80/19/12 81/20/11
f 82/20/12 81/20/11 80/19/12
f 85/20/16 84/19/15 83/20/15
f 84/19/15 85/20/16 86/19/16
f 83/20/18 84/19/18 85/20/17
f 86/19/17 85/20/17 84/19/18
f 89/19/18 88/20/17 87/19/17
f 88/20/17 89/19/18 90/20/18
f 87/19/16 88/20/16 89/19/15
f 90/20/15 89/19/15 88/20/16
f 82/20/14 89/19/18 80/19/14
f 89/19/18 82/20/14 90/20/18
f 80/19/12 89/19/15 82/20/12
f 90/20/15 82/20/12 89/19/15
f 78/20/12 84/19/15 76/19/12
f 84/19/15 78/20/12 83/20/15
f 76/19/14 84/19/18 78/20/14
f 83/20/18 78/20/14 84/19/18
f 85/20/16 79/19/13 86/19/16
f 79/19/13 85/20/16 81/20/13
f 86/19/17 79/19/11 85/20/17
f 81/20/11 85/20/17 79/19/11
f 88/20/17 75/19/11 87/19/17
f 75/19/11 88/20/17 77/20/11
f 87/19/16 75/19/13 88/20/16
f 77/20/13 88/20/16 75/19/13
f 78/20/19 85/20/19 83/20/19
f 85/20/19 78/20/19 81/20/19
f 81/20/19 78/20/19 77/20/19
f 81/20/19 77/20/19 82/20/19
f 82/20/19 77/20/19 88/20/19
f 82/20/19 88/20/19 90/20/19
f 83/20/20 85/20/20 78/20/20
f 81/20/20 78/20/20 85/20/20
f 77/20/20 78/20/20 81/20/20
f 82/20/20 77/20/20 81/20/20
f 88/20/20 77/20/20 82/20/20
f 90/20/20 88/20/20 82/20/20
f 79/19/20 84/19/20 86/19/20
f 84/19/20 79/19/20 76/19/20
f 76/19/20 79/19/20 80/19/20
f 76/19/20 80/19/20 75/19/20
f 75/19/20 80/19/20 89/19/20
f 75/19/20 89/19/20 87/19/20
f 86/19/19 84/19/19 79/19/19
f 76/19/19 79/19/19 84/19/19
f 80/19/19 79/19/19 76/19/19
f 75/19/19 80/19/19 76/19/19
f 89/19/19 80/19/19 75/19/19
f 87/19/19 89/19/19 75/19/19
f 93/20/21 92/19/22 91/19/21
f 92/19/22 93/20/21 94/20/22
f 91/19/23 92/19/24 93/20/23
f 94/20/24 93/20/23 92/19/24
f 97/20/23 96/19/24 95/19/23
f 96/19/24 97/20/23 98/20/24
f 95/19/21 96/19/22 97/20/21
f 98/20/22 97/20/21 96/19/22
f 101/20/26 100/19/25 99/20/25
f 100/19/25 101/20/26 102/19/26
f 99/20/28 100/19/28 101/20/27
f 102/19/27 101/20/27 100/19/28
f 105/19/28 104/20/27 103/19/27
f 104/20/27 105/19/28 106/20/28
f 103/19/26 104/20/26 105/19/25
f 106/20/25 105/19/25 104/20/26
f 98/20/24 105/19/28 96/19/24
f 105/19/28 98/20/24 106/20/28
f 96/19/22 105/19/25 98/20/22
f 106/20/25 98/20/22 105/19/25
f 94/20/22 100/19/25 92/19/22
f 100/19/25 94/20/22 99/20/25
f 92/19/24 100/19/28 94/20/24
f 99/20/28 94/20/24 100/19/28
f 101/20/26 95/19/23 102/19/26
f 95/19/23 101/20/26 97/20/23
f 102/19/27 95/19/21 101/20/27
f 97/20/21 101/20/27 95/19/21
f 104/20/27 91/19/21 103/19/27
f 91/19/21 104/20/27 93/20/21
f 103/19/26 91/19/23 104/20/26
f 93/20/23 104/20/26 91/19/23
f 94/20/29 101/20/29 99/20/29
f 101/20/29 94/20/29 97/20/29
f 97/20/29 94/20/29 93/20/29
f 97/20/29 93/20/29 98/20/29
f 98/20/29 93/20/29 104/20/29
f 98/20/29 104/20/29 106/20/29
f 99/20/30 101/20/30 94/20/30
f 97/20/30 94/20/30 101/20/30
f 93/20/30 94/20/30 97/20/30
f 98/20/30 93/20/30 97/20/30
f 104/20/30 93/20/30 98/20/30
f 106/20/30 104/20/30 98/20/30
f 95/19/30 100/19/30 102/19/30
f 100/19/30 95/19/30 92/19/30
f 92/19/30 95/19/30 96/19/30
f 92/19/30 96/19/30 91/19/30
f 91/19/30 96/19/30 105/19/30
f 91/19/30 105/19/30 103/19/30
f 102/19/29 100/19/29 95/19/29
f 92/19/29 95/19/29 100/19/29
f 96/19/29 95/19/29 92/19/29
f 91/19/29 96/19/29 92/19/29
f 105/19/29 96/19/29 91/19/29
f 103/19/29 105/19/29 91/19/29

