# Created by Kenney (www.kenney.nl)

mtllib template-wall-half.mtl

g template-wall-half

v -0.1379219 0.05 -1.476216 1 1 1
v -0.2828108 0.05 -1.437394 1 1 1
v -0.1767448 0.05 -1.621105 1 1 1
v -0.3216337 0.05 -1.582282 1 1 1
v -0.8862056 0 -1.807397 1 1 1
v -0.4998353 0 -1.703869 1 1 1
v -0.8508502 0.1 -1.746159 1 1 1
v -0.5610725 0.1 -1.668514 1 1 1
v -0.3522523 0 -1.59996 1 1 1
v -0.1590671 0 -1.651724 1 1 1
v -0.1073033 0 -1.458539 1 1 1
v -0.6033629 0 -1.317499 1 1 1
v -0.6387182 0.1 -1.378736 1 1 1
v -0.9897332 0 -1.421026 1 1 1
v -0.9284959 0.1 -1.456382 1 1 1
v -0.3004885 0 -1.406775 1 1 1
v -1.193593E-08 0.2 -0.8009975 1 1 1
v 1 0.2 -0.6009976 1 1 1
v -1.193593E-08 0.9 -0.8009975 1 1 1
v 1 0.9 -0.6009976 1 1 1
v 1 0.9 -5.960464E-08 1 1 1
v -1 0.9 -2.980232E-08 1 1 1
v -1 0.9 -0.6009975 1 1 1
v -1 0.2 -0.6009975 1 1 1
v -1 0.2 -2.980232E-08 1 1 1
v 1 0.2 -5.960464E-08 1 1 1
v 1 3 2.980232E-08 1 1 1
v -1 3 5.960464E-08 1 1 1
v 1 3 -0.4 1 1 1
v -8.940743E-09 3 -0.6 1 1 1
v -1 3 -0.3999999 1 1 1
v -1 0.9 -0.3999999 1 1 1
v -1 0.9 5.960464E-08 1 1 1
v -8.940743E-09 0.9 -0.6 1 1 1
v 1 0.9 2.980232E-08 1 1 1
v 1 0.9 -0.4 1 1 1
v 1 0 -5.960464E-08 1 1 1
v -1 0 5.960464E-08 1 1 1
v -1 0.2 5.960464E-08 1 1 1
v 1 0.2 -1.001995 1 1 1
v -2.537581E-08 0.2 -1.201995 1 1 1
v -1 0.2 -1.001995 1 1 1
v -2.537581E-08 0 -1.201995 1 1 1
v 1 0 -1.001995 1 1 1
v -1 0 -1.001995 1 1 1
v -0.7097746 1.332707 -0.458045 1 1 1
v -0.3318489 1.332707 -0.5336302 1 1 1
v -0.7195804 1.332707 -0.5070741 1 1 1
v -0.3416547 1.332707 -0.5826592 1 1 1
v -0.3318489 1.632707 -0.5336302 1 1 1
v -0.7097746 1.632707 -0.458045 1 1 1
v -0.3416547 1.632707 -0.5826592 1 1 1
v -0.7195804 1.632707 -0.5070741 1 1 1
v -0.2926256 1.382707 -0.592465 1 1 1
v -0.2828198 1.382707 -0.543436 1 1 1
v -0.2926256 1.582707 -0.592465 1 1 1
v -0.2828198 1.582707 -0.543436 1 1 1
v -0.7588037 1.382707 -0.4482392 1 1 1
v -0.7686095 1.382707 -0.4972683 1 1 1
v -0.7588037 1.582707 -0.4482392 1 1 1
v -0.7686095 1.582707 -0.4972682 1 1 1

vn 0.5202672 0.7994348 0.3003764
vn -0.3003764 0.7994348 0.5202672
vn 0.3003764 0.7994348 -0.5202672
vn -0.5202672 0.7994348 -0.3003764
vn -0.3003764 -0.7994348 0.5202672
vn 0.3003764 -0.7994348 -0.5202672
vn -0.5202672 -0.7994348 -0.3003764
vn 0.5202672 -0.7994348 0.3003764
vn -0.4082483 0.5773503 -0.7071068
vn 0.7071068 0.5773503 -0.4082483
vn -0.3003764 0.7994348 -0.5202672
vn 0.5202672 0.7994348 -0.3003764
vn 0.3003764 -0.7994348 0.5202672
vn -0.7071068 -0.5773503 0.4082483
vn 0.4082483 -0.5773503 0.7071068
vn -0.5202672 -0.7994348 0.3003764
vn -0.7071068 0.5773503 -0.4082482
vn 0.4082482 0.5773503 -0.7071068
vn -0.4082482 -0.5773503 0.7071068
vn 0.7071068 -0.5773503 0.4082482
vn 0.7071068 0.5773503 0.4082482
vn -0.7071068 -0.5773503 -0.4082482
vn 0.4082483 0.5773503 0.7071068
vn 0.3003764 0.7994348 0.5202672
vn -0.4082483 -0.5773503 -0.7071068
vn -0.3003764 -0.7994348 -0.5202672
vn -0.7071068 0.5773503 0.4082483
vn -0.5202672 0.7994348 0.3003764
vn 0.7071068 -0.5773503 -0.4082483
vn 0.5202672 -0.7994348 -0.3003764
vn -0.4082482 0.5773503 0.7071068
vn 0.4082482 -0.5773503 -0.7071068
vn 0 0 -1
vn 0.1961161 0 -0.9805807
vn 0 0 1
vn -0.1961161 0 0.9805807
vn 0 1 0
vn 0 -1 0
vn -1 0 0
vn 1 0 0
vn -0.1961161 0 -0.9805807
vn 0.1961161 0 0.9805807
vn 0.1961161 0 -0.9805807
vn -0.1961161 0 0.9805807
vn -0.1961162 0 -0.9805807
vn 0.1961162 0 0.9805807
vn -0.375252 -0.9238795 0.07505035
vn 0.375252 -0.9238795 -0.07505045
vn 0.375252 0.9238795 -0.07505035
vn -0.375252 0.9238795 0.07505045
vn 0.9059384 -0.3826834 -0.1811877
vn 0.9059384 0.3826834 -0.1811877
vn -0.9059384 -0.3826834 0.1811877
vn -0.9059384 0.3826834 0.1811877
vn -0.1961161 5.960464E-08 -0.9805807
vn 0.1961161 -5.960464E-08 0.9805807

vt 0.09375 0.065
vt 0.09375 0.025
vt 0.09375 0.105
vt 0.09375 0.225
vt 0.34375 0.225
vt 0.34375 0.025
vt 0.34375 0.105
vt 0.34375 0.075
vt 0.34375 0.175

usemtl colormap

f 3/1/3 2/1/2 1/1/1
f 2/1/2 3/1/3 4/1/4
f 1/1/7 2/1/6 3/1/5
f 4/1/8 3/1/5 2/1/6
f 7/3/11 6/2/10 5/2/9
f 6/2/10 7/3/11 8/3/12
f 5/2/15 6/2/14 7/3/13
f 8/3/16 7/3/13 6/2/14
f 4/1/4 10/2/18 9/2/17
f 10/2/18 4/1/4 3/1/3
f 9/2/20 10/2/19 4/1/8
f 3/1/5 4/1/8 10/2/19
f 3/1/3 11/2/21 10/2/18
f 11/2/21 3/1/3 1/1/1
f 10/2/19 11/2/22 3/1/5
f 1/1/7 3/1/5 11/2/22
f 8/3/12 12/2/23 6/2/10
f 12/2/23 8/3/12 13/3/24
f 6/2/14 12/2/25 8/3/16
f 13/3/26 8/3/16 12/2/25
f 14/2/27 7/3/11 5/2/9
f 7/3/11 14/2/27 15/3/28
f 5/2/15 7/3/13 14/2/29
f 15/3/30 14/2/29 7/3/13
f 16/2/31 4/1/4 9/2/17
f 4/1/4 16/2/31 2/1/2
f 9/2/20 4/1/8 16/2/32
f 2/1/6 16/2/32 4/1/8
f 1/1/1 16/2/31 11/2/21
f 16/2/31 1/1/1 2/1/2
f 11/2/22 16/2/32 1/1/7
f 2/1/6 1/1/7 16/2/32
f 7/3/11 13/3/24 8/3/12
f 13/3/24 7/3/11 15/3/28
f 8/3/16 13/3/26 7/3/13
f 15/3/30 7/3/13 13/3/26
f 13/3/24 14/2/27 12/2/23
f 14/2/27 13/3/24 15/3/28
f 12/2/25 14/2/29 13/3/26
f 15/3/30 13/3/26 14/2/29
f 19/4/33 18/2/34 17/2/33
f 18/2/34 19/4/33 20/4/34
f 17/2/35 18/2/36 19/4/35
f 20/4/36 19/4/35 18/2/36
f 20/4/37 22/4/37 21/4/37
f 22/4/37 20/4/37 19/4/37
f 22/4/37 19/4/37 23/4/37
f 21/4/38 22/4/38 20/4/38
f 19/4/38 20/4/38 22/4/38
f 23/4/38 19/4/38 22/4/38
f 25/2/39 23/4/39 24/2/39
f 23/4/39 25/2/39 22/4/39
f 24/2/40 23/4/40 25/2/40
f 22/4/40 25/2/40 23/4/40
f 21/4/35 25/2/35 26/2/35
f 25/2/35 21/4/35 22/4/35
f 26/2/33 25/2/33 21/4/33
f 22/4/33 21/4/33 25/2/33
f 21/4/40 18/2/40 20/4/40
f 18/2/40 21/4/40 26/2/40
f 20/4/39 18/2/39 21/4/39
f 26/2/39 21/4/39 18/2/39
f 23/4/41 17/2/33 24/2/41
f 17/2/33 23/4/41 19/4/33
f 24/2/42 17/2/35 23/4/42
f 19/4/35 23/4/42 17/2/35
f 29/5/37 28/5/37 27/5/37
f 28/5/37 29/5/37 30/5/37
f 28/5/37 30/5/37 31/5/37
f 27/5/38 28/5/38 29/5/38
f 30/5/38 29/5/38 28/5/38
f 31/5/38 30/5/38 28/5/38
f 33/6/39 31/5/39 32/6/39
f 31/5/39 33/6/39 28/5/39
f 32/6/40 31/5/40 33/6/40
f 28/5/40 33/6/40 31/5/40
f 31/5/41 34/6/33 32/6/41
f 34/6/33 31/5/41 30/5/33
f 32/6/42 34/6/35 31/5/42
f 30/5/35 31/5/42 34/6/35
f 27/5/35 33/6/35 35/6/35
f 33/6/35 27/5/35 28/5/35
f 35/6/33 33/6/33 27/5/33
f 28/5/33 27/5/33 33/6/33
f 27/5/40 36/6/40 29/5/40
f 36/6/40 27/5/40 35/6/40
f 29/5/39 36/6/39 27/5/39
f 35/6/39 27/5/39 36/6/39
f 30/5/33 36/6/34 34/6/33
f 36/6/34 30/5/33 29/5/34
f 34/6/35 36/6/36 30/5/35
f 29/5/36 30/5/35 36/6/36
f 26/7/35 38/6/35 37/6/35
f 38/6/35 26/7/35 39/7/35
f 37/6/33 38/6/33 26/7/33
f 39/7/33 26/7/33 38/6/33
f 40/7/37 39/7/37 26/7/37
f 39/7/37 40/7/37 41/7/37
f 39/7/37 41/7/37 42/7/37
f 26/7/38 39/7/38 40/7/38
f 41/7/38 40/7/38 39/7/38
f 42/7/38 41/7/38 39/7/38
f 41/7/33 44/6/43 43/6/33
f 44/6/43 41/7/33 40/7/43
f 43/6/35 44/6/44 41/7/35
f 40/7/44 41/7/35 44/6/44
f 26/7/40 44/6/40 40/7/40
f 44/6/40 26/7/40 37/6/40
f 40/7/39 44/6/39 26/7/39
f 37/6/39 26/7/39 44/6/39
f 38/6/39 42/7/39 45/6/39
f 42/7/39 38/6/39 39/7/39
f 45/6/40 42/7/40 38/6/40
f 39/7/40 38/6/40 42/7/40
f 38/6/38 44/6/38 37/6/38
f 44/6/38 38/6/38 43/6/38
f 43/6/38 38/6/38 45/6/38
f 37/6/37 44/6/37 38/6/37
f 43/6/37 38/6/37 44/6/37
f 45/6/37 38/6/37 43/6/37
f 42/7/45 43/6/33 45/6/45
f 43/6/33 42/7/45 41/7/33
f 45/6/46 43/6/35 42/7/46
f 41/7/35 42/7/46 43/6/35
f 48/9/47 47/8/48 46/8/47
f 47/8/48 48/9/47 49/9/48
f 46/8/49 47/8/50 48/9/49
f 49/9/50 48/9/49 47/8/50
f 52/9/49 51/8/50 50/8/49
f 51/8/50 52/9/49 53/9/50
f 50/8/47 51/8/48 52/9/47
f 53/9/48 52/9/47 51/8/48
f 56/9/52 55/8/51 54/9/51
f 55/8/51 56/9/52 57/8/52
f 54/9/54 55/8/54 56/9/53
f 57/8/53 56/9/53 55/8/54
f 60/8/54 59/9/53 58/8/53
f 59/9/53 60/8/54 61/9/54
f 58/8/52 59/9/52 60/8/51
f 61/9/51 60/8/51 59/9/52
f 53/9/50 60/8/54 51/8/50
f 60/8/54 53/9/50 61/9/54
f 51/8/48 60/8/51 53/9/48
f 61/9/51 53/9/48 60/8/51
f 49/9/48 55/8/51 47/8/48
f 55/8/51 49/9/48 54/9/51
f 47/8/50 55/8/54 49/9/50
f 54/9/54 49/9/50 55/8/54
f 56/9/52 50/8/49 57/8/52
f 50/8/49 56/9/52 52/9/49
f 57/8/53 50/8/47 56/9/53
f 52/9/47 56/9/53 50/8/47
f 59/9/53 46/8/47 58/8/53
f 46/8/47 59/9/53 48/9/47
f 58/8/52 46/8/49 59/9/52
f 48/9/49 59/9/52 46/8/49
f 49/9/55 56/9/55 54/9/55
f 56/9/55 49/9/55 52/9/55
f 52/9/55 49/9/55 48/9/55
f 52/9/55 48/9/55 53/9/55
f 53/9/55 48/9/55 59/9/55
f 53/9/55 59/9/55 61/9/55
f 54/9/56 56/9/56 49/9/56
f 52/9/56 49/9/56 56/9/56
f 48/9/56 49/9/56 52/9/56
f 53/9/56 48/9/56 52/9/56
f 59/9/56 48/9/56 53/9/56
f 61/9/56 59/9/56 53/9/56
f 50/8/56 55/8/56 57/8/56
f 55/8/56 50/8/56 47/8/56
f 47/8/56 50/8/56 51/8/56
f 47/8/56 51/8/56 46/8/56
f 46/8/56 51/8/56 60/8/56
f 46/8/56 60/8/56 58/8/56
f 57/8/55 55/8/55 50/8/55
f 47/8/55 50/8/55 55/8/55
f 51/8/55 50/8/55 47/8/55
f 46/8/55 51/8/55 47/8/55
f 60/8/55 51/8/55 46/8/55
f 58/8/55 60/8/55 46/8/55

g template-wall-half




usemtl colormap

f 3/1/3 2/1/2 1/1/1
f 2/1/2 3/1/3 4/1/4
f 1/1/7 2/1/6 3/1/5
f 4/1/8 3/1/5 2/1/6
f 7/3/11 6/2/10 5/2/9
f 6/2/10 7/3/11 8/3/12
f 5/2/15 6/2/14 7/3/13
f 8/3/16 7/3/13 6/2/14
f 4/1/4 10/2/18 9/2/17
f 10/2/18 4/1/4 3/1/3
f 9/2/20 10/2/19 4/1/8
f 3/1/5 4/1/8 10/2/19
f 3/1/3 11/2/21 10/2/18
f 11/2/21 3/1/3 1/1/1
f 10/2/19 11/2/22 3/1/5
f 1/1/7 3/1/5 11/2/22
f 8/3/12 12/2/23 6/2/10
f 12/2/23 8/3/12 13/3/24
f 6/2/14 12/2/25 8/3/16
f 13/3/26 8/3/16 12/2/25
f 14/2/27 7/3/11 5/2/9
f 7/3/11 14/2/27 15/3/28
f 5/2/15 7/3/13 14/2/29
f 15/3/30 14/2/29 7/3/13
f 16/2/31 4/1/4 9/2/17
f 4/1/4 16/2/31 2/1/2
f 9/2/20 4/1/8 16/2/32
f 2/1/6 16/2/32 4/1/8
f 1/1/1 16/2/31 11/2/21
f 16/2/31 1/1/1 2/1/2
f 11/2/22 16/2/32 1/1/7
f 2/1/6 1/1/7 16/2/32
f 7/3/11 13/3/24 8/3/12
f 13/3/24 7/3/11 15/3/28
f 8/3/16 13/3/26 7/3/13
f 15/3/30 7/3/13 13/3/26
f 13/3/24 14/2/27 12/2/23
f 14/2/27 13/3/24 15/3/28
f 12/2/25 14/2/29 13/3/26
f 15/3/30 13/3/26 14/2/29
f 19/4/33 18/2/34 17/2/33
f 18/2/34 19/4/33 20/4/34
f 17/2/35 18/2/36 19/4/35
f 20/4/36 19/4/35 18/2/36
f 20/4/37 22/4/37 21/4/37
f 22/4/37 20/4/37 19/4/37
f 22/4/37 19/4/37 23/4/37
f 21/4/38 22/4/38 20/4/38
f 19/4/38 20/4/38 22/4/38
f 23/4/38 19/4/38 22/4/38
f 25/2/39 23/4/39 24/2/39
f 23/4/39 25/2/39 22/4/39
f 24/2/40 23/4/40 25/2/40
f 22/4/40 25/2/40 23/4/40
f 21/4/35 25/2/35 26/2/35
f 25/2/35 21/4/35 22/4/35
f 26/2/33 25/2/33 21/4/33
f 22/4/33 21/4/33 25/2/33
f 21/4/40 18/2/40 20/4/40
f 18/2/40 21/4/40 26/2/40
f 20/4/39 18/2/39 21/4/39
f 26/2/39 21/4/39 18/2/39
f 23/4/41 17/2/33 24/2/41
f 17/2/33 23/4/41 19/4/33
f 24/2/42 17/2/35 23/4/42
f 19/4/35 23/4/42 17/2/35
f 29/5/37 28/5/37 27/5/37
f 28/5/37 29/5/37 30/5/37
f 28/5/37 30/5/37 31/5/37
f 27/5/38 28/5/38 29/5/38
f 30/5/38 29/5/38 28/5/38
f 31/5/38 30/5/38 28/5/38
f 33/6/39 31/5/39 32/6/39
f 31/5/39 33/6/39 28/5/39
f 32/6/40 31/5/40 33/6/40
f 28/5/40 33/6/40 31/5/40
f 31/5/41 34/6/33 32/6/41
f 34/6/33 31/5/41 30/5/33
f 32/6/42 34/6/35 31/5/42
f 30/5/35 31/5/42 34/6/35
f 27/5/35 33/6/35 35/6/35
f 33/6/35 27/5/35 28/5/35
f 35/6/33 33/6/33 27/5/33
f 28/5/33 27/5/33 33/6/33
f 27/5/40 36/6/40 29/5/40
f 36/6/40 27/5/40 35/6/40
f 29/5/39 36/6/39 27/5/39
f 35/6/39 27/5/39 36/6/39
f 30/5/33 36/6/34 34/6/33
f 36/6/34 30/5/33 29/5/34
f 34/6/35 36/6/36 30/5/35
f 29/5/36 30/5/35 36/6/36
f 26/7/35 38/6/35 37/6/35
f 38/6/35 26/7/35 39/7/35
f 37/6/33 38/6/33 26/7/33
f 39/7/33 26/7/33 38/6/33
f 40/7/37 39/7/37 26/7/37
f 39/7/37 40/7/37 41/7/37
f 39/7/37 41/7/37 42/7/37
f 26/7/38 39/7/38 40/7/38
f 41/7/38 40/7/38 39/7/38
f 42/7/38 41/7/38 39/7/38
f 41/7/33 44/6/43 43/6/33
f 44/6/43 41/7/33 40/7/43
f 43/6/35 44/6/44 41/7/35
f 40/7/44 41/7/35 44/6/44
f 26/7/40 44/6/40 40/7/40
f 44/6/40 26/7/40 37/6/40
f 40/7/39 44/6/39 26/7/39
f 37/6/39 26/7/39 44/6/39
f 38/6/39 42/7/39 45/6/39
f 42/7/39 38/6/39 39/7/39
f 45/6/40 42/7/40 38/6/40
f 39/7/40 38/6/40 42/7/40
f 38/6/38 44/6/38 37/6/38
f 44/6/38 38/6/38 43/6/38
f 43/6/38 38/6/38 45/6/38
f 37/6/37 44/6/37 38/6/37
f 43/6/37 38/6/37 44/6/37
f 45/6/37 38/6/37 43/6/37
f 42/7/45 43/6/33 45/6/45
f 43/6/33 42/7/45 41/7/33
f 45/6/46 43/6/35 42/7/46
f 41/7/35 42/7/46 43/6/35
f 48/9/47 47/8/48 46/8/47
f 47/8/48 48/9/47 49/9/48
f 46/8/49 47/8/50 48/9/49
f 49/9/50 48/9/49 47/8/50
f 52/9/49 51/8/50 50/8/49
f 51/8/50 52/9/49 53/9/50
f 50/8/47 51/8/48 52/9/47
f 53/9/48 52/9/47 51/8/48
f 56/9/52 55/8/51 54/9/51
f 55/8/51 56/9/52 57/8/52
f 54/9/54 55/8/54 56/9/53
f 57/8/53 56/9/53 55/8/54
f 60/8/54 59/9/53 58/8/53
f 59/9/53 60/8/54 61/9/54
f 58/8/52 59/9/52 60/8/51
f 61/9/51 60/8/51 59/9/52
f 53/9/50 60/8/54 51/8/50
f 60/8/54 53/9/50 61/9/54
f 51/8/48 60/8/51 53/9/48
f 61/9/51 53/9/48 60/8/51
f 49/9/48 55/8/51 47/8/48
f 55/8/51 49/9/48 54/9/51
f 47/8/50 55/8/54 49/9/50
f 54/9/54 49/9/50 55/8/54
f 56/9/52 50/8/49 57/8/52
f 50/8/49 56/9/52 52/9/49
f 57/8/53 50/8/47 56/9/53
f 52/9/47 56/9/53 50/8/47
f 59/9/53 46/8/47 58/8/53
f 46/8/47 59/9/53 48/9/47
f 58/8/52 46/8/49 59/9/52
f 48/9/49 59/9/52 46/8/49
f 49/9/55 56/9/55 54/9/55
f 56/9/55 49/9/55 52/9/55
f 52/9/55 49/9/55 48/9/55
f 52/9/55 48/9/55 53/9/55
f 53/9/55 48/9/55 59/9/55
f 53/9/55 59/9/55 61/9/55
f 54/9/56 56/9/56 49/9/56
f 52/9/56 49/9/56 56/9/56
f 48/9/56 49/9/56 52/9/56
f 53/9/56 48/9/56 52/9/56
f 59/9/56 48/9/56 53/9/56
f 61/9/56 59/9/56 53/9/56
f 50/8/56 55/8/56 57/8/56
f 55/8/56 50/8/56 47/8/56
f 47/8/56 50/8/56 51/8/56
f 47/8/56 51/8/56 46/8/56
f 46/8/56 51/8/56 60/8/56
f 46/8/56 60/8/56 58/8/56
f 57/8/55 55/8/55 50/8/55
f 47/8/55 50/8/55 55/8/55
f 51/8/55 50/8/55 47/8/55
f 46/8/55 51/8/55 47/8/55
f 60/8/55 51/8/55 46/8/55
f 58/8/55 60/8/55 46/8/55

