# Created by Kenney (www.kenney.nl)

mtllib template-floor-detail.mtl

g template-floor-detail

v -0.2255789 0 0.1721042 1 1 1
v -1.38469 0 -0.1384787 1 1 1
v -0.3316449 0.1 -0.01160758 1 1 1
v -1.200978 0.1 -0.2445447 1 1 1
v 1.211001 0.1 -0.9062624 1 1 1
v 0.9303682 0.1 -0.80022 1 1 1
v 1.104959 0.1 -1.186896 1 1 1
v 0.8243258 0.1 -1.080853 1 1 1
v -0.09870776 0.1 -0.8809408 1 1 1
v -0.9680409 0.1 -1.113878 1 1 1
v -0.3902233 0 0.5248491 1 1 1
v -0.2677488 0.2 0.5955597 1 1 1
v -0.1831681 0 1.29759 1 1 1
v -0.1124574 0.2 1.175115 1 1 1
v 0.4670981 0.2 1.019824 1 1 1
v 0.3118067 0.2 0.4402683 1 1 1
v 0.5895725 0 1.090534 1 1 1
v 0.08500398 0 -0.9870068 1 1 1
v -1.074107 0 -1.29759 1 1 1
v -1.227287 0.05 1.335641 1 1 1
v -1.517065 0.05 1.413287 1 1 1
v -1.304933 0.05 1.045863 1 1 1
v -1.59471 0.05 1.123509 1 1 1
v -1.55242 0 1.474524 1 1 1
v -1.655948 0 1.088154 1 1 1
v -1.16605 0 1.370996 1 1 1
v -1.269577 0 0.9846259 1 1 1
v 0.7598798 0 -1.109952 1 1 1
v 0.9012697 0 -0.735774 1 1 1
v 1.134058 0 -1.251342 1 1 1
v 1.275447 0 -0.8771639 1 1 1
v 1.385044 0 1.396792 1 1 1
v 1.578229 0 1.345028 1 1 1
v 1.415662 0.05 1.41447 1 1 1
v 1.560551 0.05 1.375647 1 1 1
v 1.599374 0.05 1.520536 1 1 1
v 1.454485 0.05 1.559358 1 1 1
v 0.3825174 0 0.3177938 1 1 1
v 1.629993 0 1.538213 1 1 1
v 1.436807 0 1.589977 1 1 1
v -0.9305172 0 -1.720207 1 1 1
v -0.737332 0 -1.771971 1 1 1
v -0.8998986 0.05 -1.702529 1 1 1
v -0.7550097 0.05 -1.741352 1 1 1
v -0.7161869 0.05 -1.596463 1 1 1
v -0.8610757 0.05 -1.55764 1 1 1
v -0.8787534 0 -1.527022 1 1 1
v -0.6855682 0 -1.578785 1 1 1
v -0.6865153 0.1 0.5110617 1 1 1
v -0.6865153 0.1 0.8110617 1 1 1
v -0.9865153 0.1 0.5110617 1 1 1
v -0.9865153 0.1 0.8110617 1 1 1
v -0.6365153 0 0.4610618 1 1 1
v -0.6365153 0 0.8610617 1 1 1
v -1.036515 0 0.4610618 1 1 1
v -1.036515 0 0.8610617 1 1 1
v 0.1962377 0 -0.594766 1 1 1
v 0.2212377 0.1 -0.569766 1 1 1
v 0.1962377 0 -0.394766 1 1 1
v 0.2212377 0.1 -0.419766 1 1 1
v 0.3712377 0.1 -0.569766 1 1 1
v 0.3712377 0.1 -0.419766 1 1 1
v 0.3962377 0 -0.594766 1 1 1
v 0.3962377 0 -0.394766 1 1 1
v 0.8239029 0.05 0.05306924 1 1 1
v 0.5341252 0.05 0.130715 1 1 1
v 0.7462572 0.05 -0.2367085 1 1 1
v 0.4564795 0.05 -0.1590628 1 1 1
v 0.4987698 0 0.1919522 1 1 1
v 0.3952422 0 -0.1944181 1 1 1
v 1.323453 0.1 0.4701758 1 1 1
v 1.245807 0.1 0.7599536 1 1 1
v 1.033675 0.1 0.3925301 1 1 1
v 0.9560292 0.1 0.6823078 1 1 1
v 1.38469 0 0.4348205 1 1 1
v 1.281162 0 0.8211908 1 1 1
v 0.8851402 0 0.08842457 1 1 1
v 0.7816125 0 -0.2979457 1 1 1
v 0.8947919 0 0.7176632 1 1 1
v 0.9983196 0 0.3312929 1 1 1
v 2 0 -2 1 1 1
v 2 0 2 1 1 1
v -2 0 -2 1 1 1
v -2 0 2 1 1 1

vn 0.2132007 0.904534 0.3692745
vn -0.3692745 0.904534 0.2132007
vn 0.1578553 0.9488556 0.2734133
vn -0.2734133 0.9488556 0.1578553
vn -0.1578553 -0.9488556 -0.2734133
vn 0.3692745 -0.904534 -0.2132007
vn -0.2132007 -0.904534 -0.3692745
vn 0.2734133 -0.9488556 -0.1578553
vn 0.5475281 0.7994348 0.2472184
vn -0.2472184 0.7994348 0.5475281
vn 0.2472184 0.7994348 -0.5475281
vn -0.5475281 0.7994348 -0.2472184
vn -0.2472184 -0.7994348 0.5475281
vn 0.2472184 -0.7994348 -0.5475281
vn -0.5475281 -0.7994348 -0.2472184
vn 0.5475281 -0.7994348 0.2472184
vn 0.2734133 0.9488556 -0.1578553
vn -0.1578553 0.9488556 -0.2734133
vn 0.1578553 -0.9488556 0.2734133
vn -0.2734133 -0.9488556 0.1578553
vn -0.7071068 0.5773503 -0.4082483
vn -0.5202672 0.7994348 -0.3003764
vn -0.4082483 0.5773503 0.7071068
vn -0.3003764 0.7994348 0.5202672
vn 0.4082483 -0.5773503 -0.7071068
vn 0.5202672 -0.7994348 0.3003764
vn 0.7071068 -0.5773503 0.4082483
vn 0.3003764 -0.7994348 -0.5202672
vn 0.5202672 0.7994348 0.3003764
vn 0.3003764 0.7994348 -0.5202672
vn -0.3003764 -0.7994348 0.5202672
vn -0.5202672 -0.7994348 -0.3003764
vn 0.7071068 0.5773503 0.4082483
vn -0.7071068 -0.5773503 -0.4082483
vn 0.3692745 0.904534 -0.2132007
vn -0.3692745 -0.904534 0.2132007
vn -0.2132007 0.904534 -0.3692745
vn 0.2132007 -0.904534 0.3692745
vn 0.3676609 0.90541 0.2122691
vn -0.2122691 0.90541 0.3676609
vn 0.2122691 0.90541 -0.3676609
vn -0.3676609 0.90541 -0.2122691
vn -0.2122691 -0.90541 0.3676609
vn 0.2122691 -0.90541 -0.3676609
vn -0.3676609 -0.90541 -0.2122691
vn 0.3676609 -0.90541 0.2122691
vn -0.2886751 0.8164966 0.5
vn -0.5 0.8164966 -0.2886751
vn 0.2886751 -0.8164966 -0.5
vn 0.5 -0.8164966 0.2886751
vn 0.5 0.8164966 0.2886751
vn 0.2886751 0.8164966 -0.5
vn -0.2886751 -0.8164966 0.5
vn -0.5 -0.8164966 -0.2886751
vn -0.7441577 0.5773503 -0.3360001
vn -0.3360001 0.5773503 0.7441577
vn 0.3360001 -0.5773503 -0.7441577
vn 0.7441577 -0.5773503 0.3360001
vn 0.3360001 0.5773503 -0.7441577
vn -0.3360001 -0.5773503 0.7441577
vn 0.7441577 0.5773503 0.3360001
vn -0.7441577 -0.5773503 -0.3360001
vn 0.4082483 0.5773503 -0.7071068
vn -0.4082483 -0.5773503 0.7071068
vn 0.4247964 0.7994348 -0.4247964
vn 0.4247964 0.7994348 0.4247964
vn -0.4247964 0.7994348 -0.4247964
vn -0.4247964 0.7994348 0.4247964
vn 0.4247964 -0.7994348 0.4247964
vn -0.4247964 -0.7994348 -0.4247964
vn -0.4247964 -0.7994348 0.4247964
vn 0.4247964 -0.7994348 -0.4247964
vn 0.5773503 0.5773503 -0.5773503
vn 0.5773503 0.5773503 0.5773503
vn -0.5773503 -0.5773503 -0.5773503
vn -0.5773503 -0.5773503 0.5773503
vn -0.5773503 0.5773503 -0.5773503
vn 0.5773503 -0.5773503 0.5773503
vn -0.5773503 0.5773503 0.5773503
vn 0.5773503 -0.5773503 -0.5773503
vn -0.6666667 0.3333333 -0.6666667
vn -0.5033765 0.7022992 -0.5033765
vn -0.6666667 0.3333333 0.6666667
vn -0.5033765 0.7022992 0.5033765
vn 0.6666667 -0.3333333 -0.6666667
vn 0.5033765 -0.7022992 0.5033765
vn 0.6666667 -0.3333333 0.6666667
vn 0.5033765 -0.7022992 -0.5033765
vn 0.5033765 0.7022992 -0.5033765
vn 0.5033765 0.7022992 0.5033765
vn -0.5033765 -0.7022992 -0.5033765
vn -0.5033765 -0.7022992 0.5033765
vn 0.6666667 0.3333333 -0.6666667
vn -0.6666667 -0.3333333 0.6666667
vn 0.6666667 0.3333333 0.6666667
vn -0.6666667 -0.3333333 -0.6666667
vn 0.5202672 0.7994348 -0.3003764
vn 0.3003764 0.7994348 0.5202672
vn -0.3003764 0.7994348 -0.5202672
vn -0.5202672 0.7994348 0.3003764
vn 0.3003764 -0.7994348 0.5202672
vn -0.3003764 -0.7994348 -0.5202672
vn -0.5202672 -0.7994348 0.3003764
vn 0.5202672 -0.7994348 -0.3003764
vn 0.7071068 0.5773503 -0.4082483
vn 0.4082483 0.5773503 0.7071068
vn -0.4082483 -0.5773503 -0.7071068
vn -0.7071068 -0.5773503 0.4082483
vn -0.7071068 0.5773503 0.4082483
vn 0.7071068 -0.5773503 -0.4082483
vn -0.4082483 0.5773503 -0.7071068
vn 0.4082483 -0.5773503 0.7071068
vn 0 1 0
vn 0 -1 0

vt 0.09375 0.025
vt 0.09375 0.065
vt 0.09375 0.105
vt 0.09375 0.045

usemtl colormap

f 3/2/3 2/1/2 1/1/1
f 2/1/2 3/2/3 4/2/4
f 1/1/7 2/1/6 3/2/5
f 4/2/8 3/2/5 2/1/6
f 7/2/11 6/2/10 5/2/9
f 6/2/10 7/2/11 8/2/12
f 5/2/15 6/2/14 7/2/13
f 8/2/16 7/2/13 6/2/14
f 10/2/18 3/2/3 9/2/17
f 3/2/3 10/2/18 4/2/4
f 9/2/20 3/2/5 10/2/19
f 4/2/8 10/2/19 3/2/5
f 13/1/23 12/3/22 11/1/21
f 12/3/22 13/1/23 14/3/24
f 11/1/27 12/3/26 13/1/25
f 14/3/28 13/1/25 12/3/26
f 16/3/30 14/3/24 15/3/29
f 14/3/24 16/3/30 12/3/22
f 15/3/32 14/3/28 16/3/31
f 12/3/26 16/3/31 14/3/28
f 15/3/29 13/1/23 17/1/33
f 13/1/23 15/3/29 14/3/24
f 17/1/34 13/1/25 15/3/32
f 14/3/28 15/3/32 13/1/25
f 9/2/17 1/1/1 18/1/35
f 1/1/1 9/2/17 3/2/3
f 18/1/36 1/1/7 9/2/20
f 3/2/5 9/2/20 1/1/7
f 19/1/37 4/2/4 10/2/18
f 4/2/4 19/1/37 2/1/2
f 10/2/19 4/2/8 19/1/38
f 2/1/6 19/1/38 4/2/8
f 22/4/41 21/4/40 20/4/39
f 21/4/40 22/4/41 23/4/42
f 20/4/45 21/4/44 22/4/43
f 23/4/46 22/4/43 21/4/44
f 23/4/42 24/1/47 21/4/40
f 24/1/47 23/4/42 25/1/48
f 21/4/44 24/1/49 23/4/46
f 25/1/50 23/4/46 24/1/49
f 27/1/52 20/4/39 26/1/51
f 20/4/39 27/1/52 22/4/41
f 26/1/54 20/4/45 27/1/53
f 22/4/43 27/1/53 20/4/45
f 25/1/48 22/4/41 27/1/52
f 22/4/41 25/1/48 23/4/42
f 27/1/53 22/4/43 25/1/50
f 23/4/46 25/1/50 22/4/43
f 29/1/56 8/2/12 28/1/55
f 8/2/12 29/1/56 6/2/10
f 28/1/58 8/2/16 29/1/57
f 6/2/14 29/1/57 8/2/16
f 8/2/12 30/1/59 28/1/55
f 30/1/59 8/2/12 7/2/11
f 28/1/58 30/1/60 8/2/16
f 7/2/13 8/2/16 30/1/60
f 5/2/9 29/1/56 31/1/61
f 29/1/56 5/2/9 6/2/10
f 31/1/62 29/1/57 5/2/15
f 6/2/14 5/2/15 29/1/57
f 34/4/22 33/1/63 32/1/21
f 33/1/63 34/4/22 35/4/30
f 32/1/27 33/1/64 34/4/26
f 35/4/31 34/4/26 33/1/64
f 7/2/11 31/1/61 30/1/59
f 31/1/61 7/2/11 5/2/9
f 30/1/60 31/1/62 7/2/13
f 5/2/15 7/2/13 31/1/62
f 35/4/30 37/4/24 36/4/29
f 37/4/24 35/4/30 34/4/22
f 36/4/32 37/4/28 35/4/31
f 34/4/26 35/4/31 37/4/28
f 16/3/30 17/1/33 38/1/63
f 17/1/33 16/3/30 15/3/29
f 38/1/64 17/1/34 16/3/31
f 15/3/32 16/3/31 17/1/34
f 36/4/29 40/1/23 39/1/33
f 40/1/23 36/4/29 37/4/24
f 39/1/34 40/1/25 36/4/32
f 37/4/28 36/4/32 40/1/25
f 20/4/39 24/1/47 26/1/51
f 24/1/47 20/4/39 21/4/40
f 26/1/54 24/1/49 20/4/45
f 21/4/44 20/4/45 24/1/49
f 12/3/22 38/1/63 11/1/21
f 38/1/63 12/3/22 16/3/30
f 11/1/27 38/1/64 12/3/26
f 16/3/31 12/3/26 38/1/64
f 35/4/30 39/1/33 33/1/63
f 39/1/33 35/4/30 36/4/29
f 33/1/64 39/1/34 35/4/31
f 36/4/32 35/4/31 39/1/34
f 19/1/37 9/2/17 18/1/35
f 9/2/17 19/1/37 10/2/18
f 18/1/36 9/2/20 19/1/38
f 10/2/19 19/1/38 9/2/20
f 43/4/22 42/1/63 41/1/21
f 42/1/63 43/4/22 44/4/30
f 41/1/27 42/1/64 43/4/26
f 44/4/31 43/4/26 42/1/64
f 40/1/23 34/4/22 32/1/21
f 34/4/22 40/1/23 37/4/24
f 32/1/27 34/4/26 40/1/25
f 37/4/28 40/1/25 34/4/26
f 44/4/30 46/4/24 45/4/29
f 46/4/24 44/4/30 43/4/22
f 45/4/32 46/4/28 44/4/31
f 43/4/26 44/4/31 46/4/28
f 47/1/23 43/4/22 41/1/21
f 43/4/22 47/1/23 46/4/24
f 41/1/27 43/4/26 47/1/25
f 46/4/28 47/1/25 43/4/26
f 44/4/30 48/1/33 42/1/63
f 48/1/33 44/4/30 45/4/29
f 42/1/64 48/1/34 44/4/31
f 45/4/32 44/4/31 48/1/34
f 45/4/29 47/1/23 48/1/33
f 47/1/23 45/4/29 46/4/24
f 48/1/34 47/1/25 45/4/32
f 46/4/28 45/4/32 47/1/25
f 51/2/67 50/2/66 49/2/65
f 50/2/66 51/2/67 52/2/68
f 49/2/71 50/2/70 51/2/69
f 52/2/72 51/2/69 50/2/70
f 49/2/65 54/1/74 53/1/73
f 54/1/74 49/2/65 50/2/66
f 53/1/76 54/1/75 49/2/71
f 50/2/70 49/2/71 54/1/75
f 51/2/67 53/1/73 55/1/77
f 53/1/73 51/2/67 49/2/65
f 55/1/78 53/1/76 51/2/69
f 49/2/71 51/2/69 53/1/76
f 50/2/66 56/1/79 54/1/74
f 56/1/79 50/2/66 52/2/68
f 54/1/75 56/1/80 50/2/70
f 52/2/72 50/2/70 56/1/80
f 56/1/79 51/2/67 55/1/77
f 51/2/67 56/1/79 52/2/68
f 55/1/78 51/2/69 56/1/80
f 52/2/72 56/1/80 51/2/69
f 59/1/83 58/2/82 57/1/81
f 58/2/82 59/1/83 60/2/84
f 57/1/87 58/2/86 59/1/85
f 60/2/88 59/1/85 58/2/86
f 58/2/82 62/2/90 61/2/89
f 62/2/90 58/2/82 60/2/84
f 61/2/92 62/2/91 58/2/86
f 60/2/88 58/2/86 62/2/91
f 58/2/82 63/1/93 57/1/81
f 63/1/93 58/2/82 61/2/89
f 57/1/87 63/1/94 58/2/86
f 61/2/92 58/2/86 63/1/94
f 62/2/90 59/1/83 64/1/95
f 59/1/83 62/2/90 60/2/84
f 64/1/96 59/1/85 62/2/91
f 60/2/88 62/2/91 59/1/85
f 61/2/89 64/1/95 63/1/93
f 64/1/95 61/2/89 62/2/90
f 63/1/94 64/1/96 61/2/92
f 62/2/91 61/2/92 64/1/96
f 67/4/41 66/4/40 65/4/39
f 66/4/40 67/4/41 68/4/42
f 65/4/45 66/4/44 67/4/43
f 68/4/46 67/4/43 66/4/44
f 68/4/42 69/1/47 66/4/40
f 69/1/47 68/4/42 70/1/48
f 66/4/44 69/1/49 68/4/46
f 70/1/50 68/4/46 69/1/49
f 73/2/99 72/2/98 71/2/97
f 72/2/98 73/2/99 74/2/100
f 71/2/103 72/2/102 73/2/101
f 74/2/104 73/2/101 72/2/102
f 71/2/97 76/1/106 75/1/105
f 76/1/106 71/2/97 72/2/98
f 75/1/108 76/1/107 71/2/103
f 72/2/102 71/2/103 76/1/107
f 65/4/39 69/1/47 77/1/51
f 69/1/47 65/4/39 66/4/40
f 77/1/54 69/1/49 65/4/45
f 66/4/44 65/4/45 69/1/49
f 70/1/48 67/4/41 78/1/52
f 67/4/41 70/1/48 68/4/42
f 78/1/53 67/4/43 70/1/50
f 68/4/46 70/1/50 67/4/43
f 72/2/98 79/1/109 76/1/106
f 79/1/109 72/2/98 74/2/100
f 76/1/107 79/1/110 72/2/102
f 74/2/104 72/2/102 79/1/110
f 73/2/99 75/1/105 80/1/111
f 75/1/105 73/2/99 71/2/97
f 80/1/112 75/1/108 73/2/101
f 71/2/103 73/2/101 75/1/108
f 79/1/109 73/2/99 80/1/111
f 73/2/99 79/1/109 74/2/100
f 80/1/112 73/2/101 79/1/110
f 74/2/104 79/1/110 73/2/101
f 78/1/52 65/4/39 77/1/51
f 65/4/39 78/1/52 67/4/41
f 77/1/54 65/4/45 78/1/53
f 67/4/43 78/1/53 65/4/45
f 83/1/113 82/1/113 81/1/113
f 82/1/113 83/1/113 84/1/113
f 81/1/114 82/1/114 83/1/114
f 84/1/114 83/1/114 82/1/114

g template-floor-detail




usemtl colormap

f 3/2/3 2/1/2 1/1/1
f 2/1/2 3/2/3 4/2/4
f 1/1/7 2/1/6 3/2/5
f 4/2/8 3/2/5 2/1/6
f 7/2/11 6/2/10 5/2/9
f 6/2/10 7/2/11 8/2/12
f 5/2/15 6/2/14 7/2/13
f 8/2/16 7/2/13 6/2/14
f 10/2/18 3/2/3 9/2/17
f 3/2/3 10/2/18 4/2/4
f 9/2/20 3/2/5 10/2/19
f 4/2/8 10/2/19 3/2/5
f 13/1/23 12/3/22 11/1/21
f 12/3/22 13/1/23 14/3/24
f 11/1/27 12/3/26 13/1/25
f 14/3/28 13/1/25 12/3/26
f 16/3/30 14/3/24 15/3/29
f 14/3/24 16/3/30 12/3/22
f 15/3/32 14/3/28 16/3/31
f 12/3/26 16/3/31 14/3/28
f 15/3/29 13/1/23 17/1/33
f 13/1/23 15/3/29 14/3/24
f 17/1/34 13/1/25 15/3/32
f 14/3/28 15/3/32 13/1/25
f 9/2/17 1/1/1 18/1/35
f 1/1/1 9/2/17 3/2/3
f 18/1/36 1/1/7 9/2/20
f 3/2/5 9/2/20 1/1/7
f 19/1/37 4/2/4 10/2/18
f 4/2/4 19/1/37 2/1/2
f 10/2/19 4/2/8 19/1/38
f 2/1/6 19/1/38 4/2/8
f 22/4/41 21/4/40 20/4/39
f 21/4/40 22/4/41 23/4/42
f 20/4/45 21/4/44 22/4/43
f 23/4/46 22/4/43 21/4/44
f 23/4/42 24/1/47 21/4/40
f 24/1/47 23/4/42 25/1/48
f 21/4/44 24/1/49 23/4/46
f 25/1/50 23/4/46 24/1/49
f 27/1/52 20/4/39 26/1/51
f 20/4/39 27/1/52 22/4/41
f 26/1/54 20/4/45 27/1/53
f 22/4/43 27/1/53 20/4/45
f 25/1/48 22/4/41 27/1/52
f 22/4/41 25/1/48 23/4/42
f 27/1/53 22/4/43 25/1/50
f 23/4/46 25/1/50 22/4/43
f 29/1/56 8/2/12 28/1/55
f 8/2/12 29/1/56 6/2/10
f 28/1/58 8/2/16 29/1/57
f 6/2/14 29/1/57 8/2/16
f 8/2/12 30/1/59 28/1/55
f 30/1/59 8/2/12 7/2/11
f 28/1/58 30/1/60 8/2/16
f 7/2/13 8/2/16 30/1/60
f 5/2/9 29/1/56 31/1/61
f 29/1/56 5/2/9 6/2/10
f 31/1/62 29/1/57 5/2/15
f 6/2/14 5/2/15 29/1/57
f 34/4/22 33/1/63 32/1/21
f 33/1/63 34/4/22 35/4/30
f 32/1/27 33/1/64 34/4/26
f 35/4/31 34/4/26 33/1/64
f 7/2/11 31/1/61 30/1/59
f 31/1/61 7/2/11 5/2/9
f 30/1/60 31/1/62 7/2/13
f 5/2/15 7/2/13 31/1/62
f 35/4/30 37/4/24 36/4/29
f 37/4/24 35/4/30 34/4/22
f 36/4/32 37/4/28 35/4/31
f 34/4/26 35/4/31 37/4/28
f 16/3/30 17/1/33 38/1/63
f 17/1/33 16/3/30 15/3/29
f 38/1/64 17/1/34 16/3/31
f 15/3/32 16/3/31 17/1/34
f 36/4/29 40/1/23 39/1/33
f 40/1/23 36/4/29 37/4/24
f 39/1/34 40/1/25 36/4/32
f 37/4/28 36/4/32 40/1/25
f 20/4/39 24/1/47 26/1/51
f 24/1/47 20/4/39 21/4/40
f 26/1/54 24/1/49 20/4/45
f 21/4/44 20/4/45 24/1/49
f 12/3/22 38/1/63 11/1/21
f 38/1/63 12/3/22 16/3/30
f 11/1/27 38/1/64 12/3/26
f 16/3/31 12/3/26 38/1/64
f 35/4/30 39/1/33 33/1/63
f 39/1/33 35/4/30 36/4/29
f 33/1/64 39/1/34 35/4/31
f 36/4/32 35/4/31 39/1/34
f 19/1/37 9/2/17 18/1/35
f 9/2/17 19/1/37 10/2/18
f 18/1/36 9/2/20 19/1/38
f 10/2/19 19/1/38 9/2/20
f 43/4/22 42/1/63 41/1/21
f 42/1/63 43/4/22 44/4/30
f 41/1/27 42/1/64 43/4/26
f 44/4/31 43/4/26 42/1/64
f 40/1/23 34/4/22 32/1/21
f 34/4/22 40/1/23 37/4/24
f 32/1/27 34/4/26 40/1/25
f 37/4/28 40/1/25 34/4/26
f 44/4/30 46/4/24 45/4/29
f 46/4/24 44/4/30 43/4/22
f 45/4/32 46/4/28 44/4/31
f 43/4/26 44/4/31 46/4/28
f 47/1/23 43/4/22 41/1/21
f 43/4/22 47/1/23 46/4/24
f 41/1/27 43/4/26 47/1/25
f 46/4/28 47/1/25 43/4/26
f 44/4/30 48/1/33 42/1/63
f 48/1/33 44/4/30 45/4/29
f 42/1/64 48/1/34 44/4/31
f 45/4/32 44/4/31 48/1/34
f 45/4/29 47/1/23 48/1/33
f 47/1/23 45/4/29 46/4/24
f 48/1/34 47/1/25 45/4/32
f 46/4/28 45/4/32 47/1/25
f 51/2/67 50/2/66 49/2/65
f 50/2/66 51/2/67 52/2/68
f 49/2/71 50/2/70 51/2/69
f 52/2/72 51/2/69 50/2/70
f 49/2/65 54/1/74 53/1/73
f 54/1/74 49/2/65 50/2/66
f 53/1/76 54/1/75 49/2/71
f 50/2/70 49/2/71 54/1/75
f 51/2/67 53/1/73 55/1/77
f 53/1/73 51/2/67 49/2/65
f 55/1/78 53/1/76 51/2/69
f 49/2/71 51/2/69 53/1/76
f 50/2/66 56/1/79 54/1/74
f 56/1/79 50/2/66 52/2/68
f 54/1/75 56/1/80 50/2/70
f 52/2/72 50/2/70 56/1/80
f 56/1/79 51/2/67 55/1/77
f 51/2/67 56/1/79 52/2/68
f 55/1/78 51/2/69 56/1/80
f 52/2/72 56/1/80 51/2/69
f 59/1/83 58/2/82 57/1/81
f 58/2/82 59/1/83 60/2/84
f 57/1/87 58/2/86 59/1/85
f 60/2/88 59/1/85 58/2/86
f 58/2/82 62/2/90 61/2/89
f 62/2/90 58/2/82 60/2/84
f 61/2/92 62/2/91 58/2/86
f 60/2/88 58/2/86 62/2/91
f 58/2/82 63/1/93 57/1/81
f 63/1/93 58/2/82 61/2/89
f 57/1/87 63/1/94 58/2/86
f 61/2/92 58/2/86 63/1/94
f 62/2/90 59/1/83 64/1/95
f 59/1/83 62/2/90 60/2/84
f 64/1/96 59/1/85 62/2/91
f 60/2/88 62/2/91 59/1/85
f 61/2/89 64/1/95 63/1/93
f 64/1/95 61/2/89 62/2/90
f 63/1/94 64/1/96 61/2/92
f 62/2/91 61/2/92 64/1/96
f 67/4/41 66/4/40 65/4/39
f 66/4/40 67/4/41 68/4/42
f 65/4/45 66/4/44 67/4/43
f 68/4/46 67/4/43 66/4/44
f 68/4/42 69/1/47 66/4/40
f 69/1/47 68/4/42 70/1/48
f 66/4/44 69/1/49 68/4/46
f 70/1/50 68/4/46 69/1/49
f 73/2/99 72/2/98 71/2/97
f 72/2/98 73/2/99 74/2/100
f 71/2/103 72/2/102 73/2/101
f 74/2/104 73/2/101 72/2/102
f 71/2/97 76/1/106 75/1/105
f 76/1/106 71/2/97 72/2/98
f 75/1/108 76/1/107 71/2/103
f 72/2/102 71/2/103 76/1/107
f 65/4/39 69/1/47 77/1/51
f 69/1/47 65/4/39 66/4/40
f 77/1/54 69/1/49 65/4/45
f 66/4/44 65/4/45 69/1/49
f 70/1/48 67/4/41 78/1/52
f 67/4/41 70/1/48 68/4/42
f 78/1/53 67/4/43 70/1/50
f 68/4/46 70/1/50 67/4/43
f 72/2/98 79/1/109 76/1/106
f 79/1/109 72/2/98 74/2/100
f 76/1/107 79/1/110 72/2/102
f 74/2/104 72/2/102 79/1/110
f 73/2/99 75/1/105 80/1/111
f 75/1/105 73/2/99 71/2/97
f 80/1/112 75/1/108 73/2/101
f 71/2/103 73/2/101 75/1/108
f 79/1/109 73/2/99 80/1/111
f 73/2/99 79/1/109 74/2/100
f 80/1/112 73/2/101 79/1/110
f 74/2/104 79/1/110 73/2/101
f 78/1/52 65/4/39 77/1/51
f 65/4/39 78/1/52 67/4/41
f 77/1/54 65/4/45 78/1/53
f 67/4/43 78/1/53 65/4/45
f 83/1/113 82/1/113 81/1/113
f 82/1/113 83/1/113 84/1/113
f 81/1/114 82/1/114 83/1/114
f 84/1/114 83/1/114 82/1/114

